<?xml version="1.0" encoding="UTF-8"?>
<svg id="Layer_2" data-name="Layer 2" xmlns="http://www.w3.org/2000/svg" viewBox="0 0 67.54 67.54">
  <defs>
    <style>
      .cls-1 {
        fill: #fff;
        stroke: #000;
        stroke-miterlimit: 10;
        stroke-width: 2px;
      }
    </style>
  </defs>
  <g id="Layer_1-2" data-name="Layer 1">
    <g>
      <path d="M29.25,33.63c-1.86,0-3.38,1.74-3.38,3.89s1.52,3.87,3.38,3.87,3.38-1.74,3.38-3.87-1.5-3.89-3.38-3.89Z"/>
      <path d="M41.86,33.63c-1.88,0-3.38,1.74-3.38,3.89s1.5,3.87,3.38,3.87,3.38-1.74,3.38-3.87-1.52-3.89-3.38-3.89Z"/>
      <path d="M59.76,3.56H11.35c-4.3,0-7.78,3.49-7.78,7.78v48.41c0,4.3,3.49,7.78,7.78,7.78h48.41c4.3,0,7.78-3.49,7.78-7.78V11.35c0-4.3-3.49-7.78-7.78-7.78ZM57.32,46.37c-2.37,3.34-7.52,5.35-11.41,5.63-.59.04-1.16-.22-1.5-.71-.02,0-.02-.02-.04-.04-.71-.97-.28-2.35.85-2.78,3.24-1.2,4.9-2.61,5.01-2.72.41-.36.45-.97.1-1.38-.36-.41-.97-.45-1.38-.08-.06.04-4.56,3.87-13.4,3.87s-13.34-3.83-13.4-3.87c-.41-.36-1.01-.32-1.38.08-.34.41-.3,1.01.1,1.38.1.1,1.76,1.52,5.01,2.72,1.13.43,1.56,1.8.85,2.78-.02.02-.02.04-.04.04-.34.49-.91.75-1.5.71-3.89-.28-9.04-2.29-11.41-5.63-.36-.51-.53-1.13-.53-1.76.18-9.38,4.13-19.98,6.12-21.83,3.4-2.72,8.27-3.47,10.38-3.69h.08c.32,0,.63.18.73.49.18.47-.1.97-.57,1.05-2.37.49-5.11,1.34-7.6,2.9-.51.3-.63.99-.22,1.46.32.36.87.41,1.3.16,4.86-3,10.9-3.16,12.08-3.16s7.21.16,12.08,3.16c.43.24.97.2,1.3-.16.41-.47.28-1.16-.22-1.46-2.49-1.56-5.23-2.41-7.6-2.9-.47-.08-.75-.59-.57-1.05.1-.3.41-.49.73-.49h.08c2.11.22,6.97.97,10.38,3.69,1.99,1.84,5.94,12.44,6.12,21.83,0,.63-.16,1.26-.53,1.76Z"/>
    </g>
    <g>
      <path class="cls-1" d="M26.69,31.06c-1.86,0-3.38,1.74-3.38,3.89s1.52,3.87,3.38,3.87,3.38-1.74,3.38-3.87-1.5-3.89-3.38-3.89Z"/>
      <path class="cls-1" d="M39.29,31.06c-1.88,0-3.38,1.74-3.38,3.89s1.5,3.87,3.38,3.87,3.38-1.74,3.38-3.87-1.52-3.89-3.38-3.89Z"/>
      <path class="cls-1" d="M57.2,1H8.78C4.49,1,1,4.49,1,8.78v48.41c0,4.3,3.49,7.78,7.78,7.78h48.41c4.3,0,7.78-3.49,7.78-7.78V8.78c0-4.3-3.49-7.78-7.78-7.78ZM54.76,43.81c-2.37,3.34-7.52,5.35-11.41,5.63-.59.04-1.16-.22-1.5-.71-.02,0-.02-.02-.04-.04-.71-.97-.28-2.35.85-2.78,3.24-1.2,4.9-2.61,5.01-2.72.41-.36.45-.97.1-1.38-.36-.41-.97-.45-1.38-.08-.06.04-4.56,3.87-13.4,3.87s-13.34-3.83-13.4-3.87c-.41-.36-1.01-.32-1.38.08-.34.41-.3,1.01.1,1.38.1.1,1.76,1.52,5.01,2.72,1.13.43,1.56,1.8.85,2.78-.02.02-.02.04-.04.04-.34.49-.91.75-1.5.71-3.89-.28-9.04-2.29-11.41-5.63-.36-.51-.53-1.13-.53-1.76.18-9.38,4.13-19.98,6.12-21.83,3.4-2.72,8.27-3.47,10.38-3.69h.08c.32,0,.63.18.73.49.18.47-.1.97-.57,1.05-2.37.49-5.11,1.34-7.6,2.9-.51.3-.63.99-.22,1.46.32.36.87.41,1.3.16,4.86-3,10.9-3.16,12.08-3.16s7.21.16,12.08,3.16c.43.24.97.2,1.3-.16.41-.47.28-1.16-.22-1.46-2.49-1.56-5.23-2.41-7.6-2.9-.47-.08-.75-.59-.57-1.05.1-.3.41-.49.73-.49h.08c2.11.22,6.97.97,10.38,3.69,1.99,1.84,5.94,12.44,6.12,21.83,0,.63-.16,1.26-.53,1.76Z"/>
    </g>
  </g>
</svg>