<?xml version="1.0" encoding="UTF-8"?>
<svg id="Layer_2" data-name="Layer 2" xmlns="http://www.w3.org/2000/svg" viewBox="0 0 65.65 65.65">
  <defs>
    <style>
      .cls-1 {
        fill: #fff;
        stroke: #000;
        stroke-miterlimit: 10;
        stroke-width: 2px;
      }
    </style>
  </defs>
  <g id="Layer_1-2" data-name="Layer 1">
    <path class="cls-1" d="M8.92,1C4.54,1,1,4.55,1,8.92v47.81c0,4.38,3.55,7.92,7.92,7.92h47.81c4.38,0,7.92-3.55,7.92-7.92V8.92c0-4.38-3.55-7.92-7.92-7.92H8.92ZM51.39,11.61c1.59,0,2.65,1.06,2.65,2.65,0,1.48-1.17,2.65-2.65,2.65-1.59,0-2.65-1.06-2.65-2.65,0-1.48,1.17-2.65,2.65-2.65ZM31.36,16.98c9.89-.9,18.2,7.42,17.31,17.31-.69,7.59-6.8,13.7-14.39,14.39-9.89.9-18.2-7.42-17.31-17.31.69-7.59,6.8-13.7,14.39-14.39h0ZM34.21,22.31c-6.91-.89-12.8,4.99-11.91,11.91.61,4.73,4.4,8.52,9.13,9.13,6.91.89,12.8-4.99,11.91-11.91-.61-4.73-4.4-8.52-9.13-9.13h0Z"/>
  </g>
</svg>