<?xml version="1.0" encoding="UTF-8"?>
<svg id="Layer_2" data-name="Layer 2" xmlns="http://www.w3.org/2000/svg" viewBox="0 0 67.21 67.21">
  <defs>
    <style>
      .cls-1 {
        fill: #fff;
        stroke: #000;
        stroke-miterlimit: 10;
        stroke-width: 2px;
      }
    </style>
  </defs>
  <g id="Layer_1-2" data-name="Layer 1">
    <path d="M59.47,3.56H11.31c-4.28,0-7.74,3.47-7.74,7.74v48.16c0,4.28,3.47,7.74,7.74,7.74h48.16c4.28,0,7.74-3.47,7.74-7.74V11.31c0-4.28-3.47-7.74-7.74-7.74h0ZM23.26,27.81v28.8h-9.09v-28.8h9.09ZM14.17,19.47c0-2.12,1.82-3.79,4.55-3.79s4.39,1.67,4.55,3.79c0,2.12-1.67,3.79-4.55,3.79-2.73,0-4.55-1.67-4.55-3.79ZM56.6,56.6h-9.09v-15.15c0-3.03-1.51-6.06-5.3-6.06h-.15c-3.64,0-5.15,3.03-5.15,6.06v15.15h-9.09v-28.8h9.09v3.94s2.88-3.94,8.79-3.94,10.91,4.09,10.91,12.58v16.22h0Z"/>
    <path class="cls-1" d="M56.9,1H8.74C4.47,1,1,4.47,1,8.74v48.16c0,4.28,3.47,7.74,7.74,7.74h48.16c4.28,0,7.74-3.47,7.74-7.74V8.74c0-4.28-3.47-7.74-7.74-7.74h0ZM20.7,25.25v28.8h-9.09v-28.8h9.09ZM11.61,16.91c0-2.12,1.82-3.79,4.55-3.79s4.39,1.67,4.55,3.79c0,2.12-1.67,3.79-4.55,3.79-2.73,0-4.55-1.67-4.55-3.79ZM54.04,54.04h-9.09v-15.15c0-3.03-1.51-6.06-5.3-6.06h-.15c-3.64,0-5.15,3.03-5.15,6.06v15.15h-9.09v-28.8h9.09v3.94s2.88-3.94,8.79-3.94,10.91,4.09,10.91,12.58v16.22h0Z"/>
  </g>
</svg>