<?xml version="1.0" encoding="UTF-8"?>
<svg id="Layer_2" data-name="Layer 2" xmlns="http://www.w3.org/2000/svg" viewBox="0 0 66.61 66.61">
  <defs>
    <style>
      .cls-1 {
        fill: #fff;
        stroke: #000;
        stroke-miterlimit: 10;
        stroke-width: 2px;
      }
    </style>
  </defs>
  <g id="Layer_1-2" data-name="Layer 1">
    <path class="cls-1" d="M57.75,1H8.86C4.52,1,1,4.52,1,8.86v48.89c0,4.34,3.52,7.86,7.86,7.86h48.89c4.34,0,7.86-3.52,7.86-7.86V8.86c0-4.34-3.52-7.86-7.86-7.86ZM43.79,37.76c-3.9.97-7.07,1.9-9.53,5.2-3.46,4.64-4.58,14.27-12.05,14.18-10.06-.13-10.73-17.97-10.66-24.74.09-8.24,2.6-16.5,10.59-20.27,6.59-3.11,15.7-3.44,22.6-1.2,5.56,1.8,10.3,6.79,10.31,12.87,0,7.01-4.56,12.3-11.26,13.97h0Z"/>
  </g>
</svg>