<?xml version="1.0" encoding="UTF-8"?>
<svg id="Layer_2" data-name="Layer 2" xmlns="http://www.w3.org/2000/svg" viewBox="0 0 67.21 67.21">
  <defs>
    <style>
      .cls-1 {
        fill: #fff;
        stroke: #000;
        stroke-miterlimit: 10;
        stroke-width: 2px;
      }
    </style>
  </defs>
  <g id="Layer_1-2" data-name="Layer 1">
    <g>
      <path d="M50.75,29.49c-6.19-3.63-13.51-4.4-18.57-4.41h-.07c-6,0-10.52,1.04-10.72,1.09-1.11.26-1.8,1.37-1.54,2.48s1.37,1.8,2.48,1.54c.04-.01,4.28-.98,9.78-.98h.06c4.55,0,11.1.68,16.49,3.84.33.19.69.28,1.04.28.71,0,1.4-.36,1.78-1.02.58-.98.25-2.25-.73-2.82Z"/>
      <path d="M47.84,37.28c-5.32-3.32-11.06-3.98-15.67-3.95-5.05.04-8.74.95-9.03,1.03-.94.27-1.49,1.25-1.22,2.19s1.25,1.49,2.19,1.22c.06-.02,3.76-.9,8.38-.94,4.1-.04,8.85.57,13.47,3.45.29.18.62.27.93.27.59,0,1.17-.3,1.5-.84.52-.83.26-1.92-.57-2.44h0Z"/>
      <path d="M59.64,3.56H11.14c-4.24,0-7.58,3.33-7.58,7.58v48.5c0,4.24,3.33,7.58,7.58,7.58h48.5c4.24,0,7.58-3.33,7.58-7.58V11.14c0-4.24-3.33-7.58-7.58-7.58ZM35.27,59.12c-13.08,0-23.73-10.65-23.73-23.73s10.65-23.73,23.73-23.73,23.73,10.64,23.73,23.73-10.65,23.73-23.73,23.73Z"/>
      <path d="M44.89,43.91c-3.57-2.38-8.59-3.35-12.2-3.35-4.33,0-7.57,1.07-7.71,1.11-.81.27-1.25,1.15-.98,1.96.27.81,1.15,1.25,1.96.98.03,0,2.9-.95,6.73-.95,3.61,0,7.93,1.13,10.48,2.83.26.18.56.26.86.26.5,0,.99-.24,1.29-.69.47-.71.28-1.67-.43-2.14h0Z"/>
    </g>
    <g>
      <path class="cls-1" d="M48.18,26.93c-6.19-3.63-13.51-4.4-18.57-4.41h-.07c-6,0-10.52,1.04-10.72,1.09-1.11.26-1.8,1.37-1.54,2.48s1.37,1.8,2.48,1.54c.04-.01,4.28-.98,9.78-.98h.06c4.55,0,11.1.68,16.49,3.84.33.19.69.28,1.04.28.71,0,1.4-.36,1.78-1.02.58-.98.25-2.25-.73-2.82Z"/>
      <path class="cls-1" d="M45.27,34.72c-5.32-3.32-11.06-3.98-15.67-3.95-5.05.04-8.74.95-9.03,1.03-.94.27-1.49,1.25-1.22,2.19s1.25,1.49,2.19,1.22c.06-.02,3.76-.9,8.38-.94,4.1-.04,8.85.57,13.47,3.45.29.18.62.27.93.27.59,0,1.17-.3,1.5-.84.52-.83.26-1.92-.57-2.44h0Z"/>
      <path class="cls-1" d="M57.07,1H8.58C4.33,1,1,4.33,1,8.58v48.5c0,4.24,3.33,7.58,7.58,7.58h48.5c4.24,0,7.58-3.33,7.58-7.58V8.58c0-4.24-3.33-7.58-7.58-7.58ZM32.71,56.55c-13.08,0-23.73-10.65-23.73-23.73s10.65-23.73,23.73-23.73,23.73,10.64,23.73,23.73-10.65,23.73-23.73,23.73Z"/>
      <path class="cls-1" d="M42.32,41.35c-3.57-2.38-8.59-3.35-12.2-3.35-4.33,0-7.57,1.07-7.71,1.11-.81.27-1.25,1.15-.98,1.96.27.81,1.15,1.25,1.96.98.03,0,2.9-.95,6.73-.95,3.61,0,7.93,1.13,10.48,2.83.26.18.56.26.86.26.5,0,.99-.24,1.29-.69.47-.71.28-1.67-.43-2.14h0Z"/>
    </g>
  </g>
</svg>