<?xml version="1.0" encoding="UTF-8"?>
<svg id="Layer_2" data-name="Layer 2" xmlns="http://www.w3.org/2000/svg" viewBox="0 0 65.65 65.65">
  <defs>
    <style>
      .cls-1 {
        fill: #fff;
        stroke: #000;
        stroke-miterlimit: 10;
        stroke-width: 2px;
      }
    </style>
  </defs>
  <g id="Layer_1-2" data-name="Layer 1">
    <path class="cls-1" d="M57.07,1H8.58C4.33,1,1,4.33,1,8.58v48.5c0,4.24,3.33,7.58,7.58,7.58h48.5c4.24,0,7.58-3.33,7.58-7.58V8.58c0-4.24-3.33-7.58-7.58-7.58h0ZM51.01,28.73h-1.06c-3.94,0-7.43-1.97-9.55-5.15v17.43c0,7.12-5.76,12.88-12.88,12.88s-12.88-5.61-12.88-12.73,5.76-12.88,12.88-12.88h.76v6.36c-.3,0-.46-.15-.76-.15-3.64,0-6.67,2.88-6.67,6.67s2.88,6.67,6.67,6.67,6.82-2.88,6.82-6.52V11.61h6.06c.61,5.46,5,9.7,10.46,10.15v6.97h.15Z"/>
  </g>
</svg>