<?xml version="1.0" encoding="UTF-8"?>
<svg id="Layer_2" data-name="Layer 2" xmlns="http://www.w3.org/2000/svg" viewBox="0 0 67.21 67.21">
  <defs>
    <style>
      .cls-1 {
        fill: #fff;
        stroke: #000;
        stroke-miterlimit: 10;
        stroke-width: 2px;
      }
    </style>
  </defs>
  <g id="Layer_1-2" data-name="Layer 1">
    <path d="M16.87,18.03h13.31l7.81,10.99,9.84-10.99h4.34l-11.86,13.89,14.76,20.83h-13.89l-8.68-12.44-10.42,12.44h-4.34l13.02-15.04-13.89-19.67h0ZM23.52,21.5l19.67,27.77h5.21l-19.67-27.77h-5.21ZM11.28,3.56c-4.24,0-7.72,3.47-7.72,7.72v48.22c0,4.24,3.47,7.72,7.72,7.72h48.22c4.24,0,7.72-3.47,7.72-7.72V11.28c0-4.24-3.47-7.72-7.72-7.72H11.28h0Z"/>
    <path class="cls-1" d="M14.31,15.46h13.31l7.81,10.99,9.84-10.99h4.34l-11.86,13.89,14.76,20.83h-13.89l-8.68-12.44-10.42,12.44h-4.34l13.02-15.04L14.31,15.47h0ZM20.96,18.94l19.67,27.77h5.21l-19.67-27.77h-5.21ZM8.72,1C4.47,1,1,4.47,1,8.72v48.22c0,4.24,3.47,7.72,7.72,7.72h48.22c4.24,0,7.72-3.47,7.72-7.72V8.72c0-4.24-3.47-7.72-7.72-7.72H8.72h0Z"/>
  </g>
</svg>