<?xml version="1.0" encoding="UTF-8"?>
<svg id="Layer_2" data-name="Layer 2" xmlns="http://www.w3.org/2000/svg" viewBox="0 0 67.21 67.21">
  <defs>
    <style>
      .cls-1 {
        fill: #fff;
        stroke: #000;
        stroke-miterlimit: 10;
        stroke-width: 2px;
      }
    </style>
  </defs>
  <g id="Layer_1-2" data-name="Layer 1">
    <g>
      <polygon points="29.48 43.85 42.47 36.4 29.48 28.94 29.48 43.85"/>
      <path d="M59.47,3.56H11.31c-4.28,0-7.74,3.47-7.74,7.74v48.16c0,4.28,3.47,7.74,7.74,7.74h48.16c4.28,0,7.74-3.47,7.74-7.74V11.31c0-4.28-3.47-7.74-7.74-7.74ZM57.58,45.57c-.1.73-.21,1.4-.3,2.01-.43,2.45-2.45,4.05-4.79,4.58-3.73.75-10.12,1.28-17.15,1.28s-13.42-.53-17.15-1.28c-2.34-.53-4.37-2.24-4.79-4.58-.53-2.66-.96-6.39-.96-11.19s.43-8.52.85-11.19c.43-2.45,2.45-4.05,4.79-4.58,3.51-.75,10.12-1.28,17.15-1.28s13.53.53,17.04,1.28c2.34.53,4.37,2.24,4.79,4.58.1.5.2,1.04.3,1.61,1.06,6.2,1.09,12.53.22,18.75h0Z"/>
    </g>
    <g>
      <polygon class="cls-1" points="26.91 41.29 39.91 33.83 26.91 26.38 26.91 41.29"/>
      <path class="cls-1" d="M56.9,1H8.74C4.47,1,1,4.47,1,8.74v48.16c0,4.28,3.47,7.74,7.74,7.74h48.16c4.28,0,7.74-3.47,7.74-7.74V8.74c0-4.28-3.47-7.74-7.74-7.74ZM55.02,43.01c-.1.73-.21,1.4-.3,2.01-.43,2.45-2.45,4.05-4.79,4.58-3.73.75-10.12,1.28-17.15,1.28s-13.42-.53-17.15-1.28c-2.34-.53-4.37-2.24-4.79-4.58-.53-2.66-.96-6.39-.96-11.19s.43-8.52.85-11.19c.43-2.45,2.45-4.05,4.79-4.58,3.51-.75,10.12-1.28,17.15-1.28s13.53.53,17.04,1.28c2.34.53,4.37,2.24,4.79,4.58.1.5.2,1.04.3,1.61,1.06,6.2,1.09,12.53.22,18.75h0Z"/>
    </g>
  </g>
</svg>