<?xml version="1.0" encoding="UTF-8"?>
<svg id="Layer_2" data-name="Layer 2" xmlns="http://www.w3.org/2000/svg" viewBox="0 0 1696.74 573.47">
  <defs>
    <style>
      .cls-1 {
        fill: #71ef67;
      }

      .cls-1, .cls-2, .cls-3, .cls-4, .cls-5, .cls-6, .cls-7, .cls-8 {
        stroke-miterlimit: 10;
      }

      .cls-1, .cls-2, .cls-5, .cls-6, .cls-7, .cls-8 {
        stroke-width: 2px;
      }

      .cls-1, .cls-4, .cls-5, .cls-6, .cls-8 {
        stroke: #231f20;
      }

      .cls-2, .cls-3 {
        stroke: #000;
      }

      .cls-2, .cls-3, .cls-5 {
        fill: #fff;
      }

      .cls-2, .cls-5, .cls-7 {
        stroke-linecap: round;
      }

      .cls-3 {
        stroke-width: 5px;
      }

      .cls-4 {
        fill: #231f20;
      }

      .cls-6 {
        fill: #eab00f;
      }

      .cls-7 {
        fill: none;
        stroke: #fffbf3;
      }

      .cls-8 {
        fill: #ff6161;
      }
    </style>
  </defs>
  <g id="Layer_1-2" data-name="Layer 1">
    <path d="M227.13,15.62h80.52c12.77,0,23.12,10.35,23.12,23.12v10.39c0,10.42,8.44,18.86,18.86,18.86h36.35s0,3.88,0,3.88h-158.86V15.62Z"/>
    <path d="M1666.24,573.47H45.19c-16.84,0-30.49-13.65-30.49-30.49V39.96c0-13.95,11.31-25.26,25.26-25.26h209.41c13.95,0,25.26,11.31,25.26,25.26v10.67c0,9.46,7.67,17.13,17.13,17.13h1374.48c16.84,0,30.49,13.65,30.49,30.49v444.72c0,16.84-13.65,30.49-30.49,30.49Z"/>
    <path class="cls-3" d="M214.94,3.42h80.52c12.77,0,23.12,10.35,23.12,23.12v10.39c0,10.42,8.44,18.86,18.86,18.86h36.35s0,3.88,0,3.88h-158.86V3.42Z"/>
    <path class="cls-3" d="M1654.04,561.27H32.99c-16.84,0-30.49-13.65-30.49-30.49V27.76C2.5,13.81,13.81,2.5,27.76,2.5h209.41c13.95,0,25.26,11.31,25.26,25.26v10.67c0,9.46,7.67,17.13,17.13,17.13h1374.48c16.84,0,30.49,13.65,30.49,30.49v444.72c0,16.84-13.65,30.49-30.49,30.49Z"/>
    <circle class="cls-8" cx="32.95" cy="31.88" r="10.04"/>
    <circle class="cls-6" cx="65.63" cy="31.88" r="10.04"/>
    <circle class="cls-1" cx="98.31" cy="31.88" r="10.04"/>
    <g>
      <line class="cls-7" x1="29.25" y1="28.18" x2="36.65" y2="35.58"/>
      <line class="cls-7" x1="29.25" y1="35.58" x2="36.65" y2="28.18"/>
    </g>
    <line class="cls-5" x1="60.82" y1="31.88" x2="70.45" y2="31.88"/>
    <g>
      <path class="cls-4" d="M94.59,27.85l3.81,1.02c.18.05.24.28.11.41l-2.79,2.79c-.13.13-.36.07-.41-.11l-1.02-3.81c-.05-.18.12-.35.3-.3Z"/>
      <path class="cls-4" d="M102.04,35.91l-3.81-1.02c-.18-.05-.24-.28-.11-.41l2.79-2.79c.13-.13.36-.07.41.11l1.02,3.81c.05.18-.12.35-.3.3Z"/>
    </g>
    <g>
      <line class="cls-2" x1="290.4" y1="21.05" x2="290.4" y2="39.57"/>
      <line class="cls-2" x1="281.14" y1="30.31" x2="299.66" y2="30.31"/>
    </g>
  </g>
</svg>