<?xml version="1.0" encoding="UTF-8"?>
<svg id="Layer_2" data-name="Layer 2" xmlns="http://www.w3.org/2000/svg" viewBox="0 0 701.6 646.34">
  <defs>
    <style>
      .cls-1 {
        fill: #ccc;
        stroke: #fff;
        stroke-miterlimit: 10;
        stroke-width: 2px;
      }
    </style>
  </defs>
  <g id="Layer_1-2" data-name="Layer 1">
    <g>
      <path class="cls-1" d="M23.22,516.95c-1.78.33-3.82,1.32-4.48,2.24s-1.19,3.16-1.12,4.94v1.91c.07,1.84.26,3.62.46,4.08s-.33,2.11-1.12,3.69l-3.56,6.85c-.86,1.58-1.45,3.29-1.32,3.69s-.66,1.98-1.65,3.49l-2.77,4.08c-.99,1.51-2.5,2.77-3.23,2.9s-1.25.66-1.05,1.32-.33,2.5-1.19,4.08l-.46.86c-.86,1.58-.99,4.15-.4,5.66.59,1.51,1.98,2.83,2.96,2.96s2.04.79,2.3,1.51-.13,2.5-.92,3.82-1.19,2.77-.92,3.16.2,2.17-.2,3.95v.13c-.4,1.78-1.38,4.54-2.17,6.12l-.26.53c-.79,1.65-.46,2.77.79,2.57,1.25-.2,3.62.33,5.2,1.19l2.5,1.32c1.58.86,3.82,1.12,4.87.59,1.05-.53,2.44-.99,2.96-.99s.99-1.45.99-3.23.66-3.95,1.45-4.74c.79-.79,1.65-1.98,1.91-2.57s1.38-1.25,2.63-1.45c1.25-.2,2.3-.79,2.5-1.38s-.26-1.05-.99-.99-1.65-1.38-2.11-3.09l-.2-.66c0-.13-.13-.26-.33-.33h-.26c-.33-.13-.46-.46-.26-.72l1.51-1.98c.13-.2,0-.46-.13-.59h-.13c-.26-.26-.26-.66,0-.79l4.08-2.3s.13-.13.13-.2l.92-1.98v-.46l-1.32-1.19c-1.05-.99-1.58-2.44-1.45-3.82l.13-1.45v-.33l-.33-.72c-.79-1.65,0-2.63,1.65-2.3s3.82-.59,4.74-2.17l.72-1.32v-.46h0c-.72-1.58-.59-3.29.4-3.75s1.65-1.32,1.51-1.91.2-2.37.79-3.95c.59-1.58.66-3.62.33-4.48s-.2-1.51.46-1.38,1.65-.46,2.3-1.25,2.17-1.84,3.42-2.37,2.5-1.58,2.83-2.37-.2-1.71-1.19-2.04c-.99-.33-1.65-1.65-1.51-2.96s-.86-2.5-2.24-2.7c-1.38-.2-2.83-.66-3.29-.99s-1.05-.26-1.32.2-1.32.66-2.37.39-2.24-.72-2.5-.99-1.38-.46-2.37-.33h0c-.26,0-.46-.2-.46-.46h0c0-.33-.33-.53-.59-.39h0c-1.12.53-2.3.59-2.63.2s0-1.12.66-1.65.99-1.32.79-1.91-1.91-.79-3.69-.46h-.33v.13h-.13Z"/>
      <path class="cls-1" d="M298.35,436.5c-.53.72-2.44,1.05-4.21.66l-11.85-2.5c-1.78-.39-4.08.53-5.07,2.04l-1.12,1.58c-.99,1.51-3.29,2.57-5.14,2.37h-.59c-1.78-.26-4.21-1.58-5.4-2.96l-3.29-3.88c-1.19-1.38-3.36-3.36-4.87-4.35l-1.45-.99c-1.51-.99-2.37-2.83-1.98-4.02.4-1.19-.26-3.29-1.51-4.61l-1.58-1.65c-1.25-1.32-.86-2.77.92-3.29l2.96-.86c1.71-.53,4.41-1.78,5.86-2.77l5-3.49c1.51-1.05,4.15-2.17,5.93-2.57l2.17-.46c1.78-.39,4.61-.13,6.32.46l5.93,2.17c1.71.66,3.75,2.44,4.61,4.08l1.25,2.37c.86,1.58,2.17,1.58,3.03,0l.13-.2c.79-1.65,2.96-2.63,4.74-2.3l.66.13c1.78.33,3.56,1.71,3.95,2.96.4,1.25,2.17,2.3,4.02,2.3h.2c1.84,0,4.08,1.25,5.14,2.77l.46.72c.99,1.51.59,3.49-.92,4.48s-3.03,2.77-3.36,4.02c-.33,1.25-1.45,3.16-2.5,4.15-1.05.99-3.03,1.91-4.54,2.04s-3.16.79-3.69,1.51h-.2v.07Z"/>
      <path class="cls-1" d="M428.63,493.78c0-1.78-1.45-2.96-3.23-2.63h-.26c-1.78.39-4.21,0-5.46-.59s-3.69-1.12-5.46-.99l-1.71.13c-1.78.13-4.54.99-6.12,1.84l-2.44,1.38c-1.58.92-3.69,2.9-4.67,4.41l-.59.92c-.99,1.51-3.29,2.77-5.14,2.77h-4.74c-1.84,0-3.75.53-4.35,1.12-.59.59-2.5.86-4.28.59l-3.16-.46c-1.78-.26-4.67,0-6.39.59l-.53.2c-1.71.59-2.77,0-2.44-1.32s-.2-2.77-1.32-3.16-2.04-.13-2.04.72-.46,1.84-1.05,2.17-.66,2.11-.13,3.82l.33,1.12c.53,1.71,2.24,3.88,3.75,4.81l.39.2c1.58.92,2.17,2.96,1.32,4.61l-.13.2c-.86,1.58-2.04,3.23-2.7,3.62s-.66,1.71,0,2.96.79,2.96.26,3.75,0,2.11.86,2.9,2.3,1.45,3.09,1.45,1.98.99,2.7,2.3,1.32,3.56,1.25,5.2c-.07,1.65.46,2.9,1.12,2.9s1.65-.39,2.11-.86,1.98-.92,3.36-1.05,3.62-1.12,5.07-2.17c1.45-1.05,4.02-1.58,5.66-1.05,1.65.53,3.69.72,4.41.46s1.98-.13,2.77.39,2.83.33,4.48-.33l3.82-1.58c1.65-.72,2.57-2.44,1.98-3.88-.59-1.45-.33-2.77.53-2.96s2.04-1.45,2.63-2.77c.59-1.32,1.78-2.44,2.63-2.44s1.98-.66,2.63-1.51,2.3-1.12,3.75-.59c1.45.53,3.69.26,4.94-.53s1.32-2.5.13-3.82c-1.19-1.32-3.16-2.37-4.35-2.37s-1.19-1.12,0-2.44l.79-.86c1.25-1.32,1.98-3.88,1.65-5.66l-.26-1.38c-.33-1.78.53-4.08,1.84-5.07s2.44-3.29,2.44-5h.26v-.07Z"/>
      <path class="cls-1" d="M337.72,475.67c-1.38-1.19-1.12-2.77.53-3.49l2.44-1.05c1.65-.72,3.16-2.7,3.29-4.35.13-1.65,1.05-4.28,2.11-5.79l.46-.72c.99-1.51,1.91-4.08,2.11-5.79s.92-4.35,1.71-5.99l.53-1.19c.79-1.65,2.17-2.96,3.09-2.96s2.11-.86,2.63-1.91,1.45-2.57,2.04-3.42,2.57-1.32,4.35-1.05l3.95.53c1.78.26,4.21,0,5.33-.66,1.12-.66,2.96-.13,4.08.99,1.12,1.12,2.63.92,3.42-.46s2.77-2.96,4.54-3.49l2.17-.72c1.71-.53,4.08-2.17,5.2-3.56l.99-1.25c1.12-1.38,3.03-1.45,4.15,0l2.5,2.96c1.19,1.38,3.23,3.49,4.54,4.74l9.09,8.23c1.32,1.19,2.44,3.69,2.44,5.53v2.83c0,1.84.46,4.67,1.05,6.39l.59,1.71c.59,1.71,2.44,3.75,4.02,4.61l1.32.66c1.65.79,3.95.39,5.2-.92l.33-.33c1.25-1.32,3.16-2.3,4.28-2.17s2.3,1.65,2.7,3.42l.33,1.58c.39,1.78-.53,4.02-2.04,5l-.66.39c-1.51.99-3.16,3.23-3.75,4.94l-.13.46c-.53,1.71-.79,4.61-.53,6.39l.2,1.38c.26,1.78-.99,3.49-2.83,3.82h-.26c-1.78.39-4.21,0-5.46-.59s-3.69-1.12-5.46-.99l-1.71.13c-1.78.13-4.54.99-6.12,1.84l-2.44,1.38c-1.58.92-3.69,2.9-4.67,4.41l-.59.92c-.99,1.51-3.29,2.77-5.14,2.77h-4.74c-1.84,0-3.75.53-4.35,1.12-.59.59-2.5.86-4.28.59l-3.16-.46c-1.78-.26-4.67,0-6.39.59l-.53.2c-1.71.59-2.77,0-2.44-1.32s-.53-2.9-1.98-3.42c-1.45-.53-3.03-1.65-3.42-2.5s-.13-1.78.66-2.17c.79-.39.13-1.45-1.51-2.3l-.26-.13c-1.58-.86-3.03-.33-3.16,1.25s-.92,2.37-1.71,1.78-2.9-1.38-4.67-1.78h-.13c-1.78-.39-2.63-1.25-1.98-1.91s.99-1.91.79-2.9-1.84-2.17-3.56-2.77l-2.17-.72c-1.71-.59-3.29-2.04-3.49-3.36s-1.45-3.29-2.83-4.48l-.72-.59h0l.13.13h0Z"/>
      <path class="cls-1" d="M351.48,435.97c-1.12-.39-3.03-.33-4.28.2s-2.9,0-3.69-.99c-.79-.99-2.3-1.32-3.29-.66s-2.96,1.25-4.28,1.32-2.7,1.19-3.03,2.63c-.33,1.45-1.58,3.03-2.7,3.62s-2.96.66-4.08.2-1.98,0-1.98.99-1.51,2.04-3.29,2.3l-.92.13c-1.78.26-2.96,1.25-2.57,2.17s-.72,1.98-2.5,2.24l-4.74.79c-1.78.33-4.67.26-6.45-.13h-.2c-1.78-.46-4.35.2-5.79,1.32l-.79.66c-1.38,1.12-2.63,3.56-2.77,5.33l-.13,2.17c-.07,1.84-.2,3.95-.2,4.81s.33,2.24.79,3.03,1.05,1.98,1.38,2.63,1.71,2.11,3.09,3.29l3.42,3.03c1.38,1.19,3.95,2.37,5.73,2.57l5.66.66c1.78.2,4.08,0,5.14-.66s3.03-1.91,4.54-2.96l2.63-1.91c1.45-1.05,4.15-1.78,5.93-1.58,1.78.2,4.54-.26,6.25-.99l2.44-1.05c1.65-.72,3.16-2.7,3.29-4.35.13-1.65,1.05-4.28,2.11-5.79l.46-.72c.99-1.51,1.91-4.08,2.11-5.79.2-1.71.92-4.35,1.71-5.99l.53-1.19c.79-1.65,2.17-2.96,3.09-2.96s2.11-.86,2.63-1.91,0-2.77-1.05-3.82c-1.05-1.05-2.96-2.24-4.02-2.63h-.2Z"/>
      <path class="cls-1" d="M303.42,450.79c-1.78-.39-4.15-1.84-5.27-3.29l-.2-.26c-1.12-1.38-1.78-4.02-1.38-5.79v-.46c.46-1.78,1.25-3.82,1.78-4.54s2.24-1.45,3.69-1.51,3.56-.99,4.54-2.04c.99-1.05,2.11-2.9,2.5-4.15s1.84-3.09,3.36-4.02,4.02-2.11,5.6-2.57c1.58-.46,4.02,0,5.46,1.19l.33.26c1.45,1.12,3.69,1.05,5-.13,1.32-1.19,3.42-1.71,4.61-1.19,1.19.53,3.62.46,5.33-.13l1.98-.66c1.71-.59,4.54-.53,6.25,0l4.87,1.71c1.71.59,2.24,2.3,1.12,3.75l-.26.33c-1.05,1.45-2.24,3.82-2.57,5.27-.33,1.45-1.65,2.96-2.9,3.49-1.25.53-2.9,0-3.69-.99s-2.3-1.32-3.29-.66-2.96,1.25-4.28,1.32c-1.32.07-2.7,1.19-3.03,2.63-.33,1.45-1.58,3.03-2.7,3.62s-2.96.66-4.08.2-1.98,0-1.98.99-1.51,2.04-3.29,2.3l-.92.13c-1.78.26-2.96,1.25-2.57,2.17.4.92-.72,1.98-2.5,2.24l-4.74.79c-1.78.33-4.67.26-6.45-.13h-.33v.13Z"/>
      <path class="cls-1" d="M270.3,474.16c-1.84,0-4.74-.26-6.52-.59l-7.24-1.32c-1.78-.33-3.75-1.84-4.41-3.42s-2.63-2.63-4.41-2.44l-2.7.33c-1.78.26-3.95,1.32-4.74,2.44s-2.63,1.51-4.02.86c-1.38-.66-4.02-1.38-5.79-1.71l-4.81-.86c-1.78-.33-2.9-2.04-2.5-3.82l.4-1.78c.4-1.78,2.11-2.63,3.75-1.84l1.51.66c1.65.72,4.41.92,6.12.39l12.44-3.82c1.71-.53,4.54-.53,6.32,0l1.71.53c1.71.53,2.83-.53,2.5-2.3l-.59-2.96c-.33-1.78.46-4.21,1.84-5.4l5.4-4.81c1.38-1.19,3.95-2.04,5.73-1.84h.72c1.78.26,4.08-.79,5.14-2.3l1.12-1.58c.99-1.51,3.29-2.44,5.07-2.04l11.85,2.5c1.78.39,2.9,2.11,2.57,3.88v.46c-.46,1.78.13,4.35,1.32,5.79l.2.26c1.12,1.38.92,3.49-.53,4.61l-.79.66c-1.38,1.12-2.63,3.56-2.77,5.33l-.26,5.27c-.07,1.84-1.51,3.88-3.16,4.61l-10.93,4.87c-1.65.72-4.48,1.32-6.32,1.32h-3.23v.07Z"/>
      <path class="cls-1" d="M299,474.03c-1.38-1.19-3.69-1.38-5.27-.39l-3.62,2.3c-1.51.99-2.37,2.96-1.91,4.41.46,1.45,0,2.96-1.05,3.29-1.05.33-2.11,1.84-2.3,3.36s-1.65,2.17-3.36,1.51l-1.71-.66c-1.65-.66-4.28-.46-5.79.53l-.2.13c-1.51.99-3.69,1.84-4.87,1.91s-1.78,1.51-1.32,3.29l.99,3.69c.46,1.78,1.71,1.98,2.83.53l2.3-3.09c1.12-1.45,2.96-1.91,4.21-.99,1.25.92,2.37,3.09,2.57,4.87v.13c.2,1.78,1.05,4.21,1.84,5.27.79,1.05,1.51,2.83,1.51,3.75s1.19,2.63,2.63,3.62l3.62,2.57c1.45,1.05,2.7,2.63,2.77,3.49s1.12,1.32,2.37.99,3.69-.26,5.27.2c1.58.46,4.21,1.71,5.66,2.77l11.39,8.03c1.45,1.05,3.56,1.78,4.67,1.71,1.12-.07.86-1.12-.59-2.3l-12.11-9.81c-1.38-1.12-3.69-2.96-5.14-4.08l-7.04-5.6c-1.38-1.12-3.09-3.42-3.69-5.14l-.4-1.12c-.59-1.71-1.78-3.42-2.5-3.82s-1.25-2.17-1.05-4.02v-.46c.2-1.78,1.65-2.5,3.16-1.51h.13c1.51,1.05,3.23,1.05,3.75.13s2.04-1.84,3.29-2.04,3.75,0,5.53.33l3.09.66c1.78.39,4.67.46,6.45.2l1.84-.26c1.78-.26,4.08.26,5.07,1.12s2.57.33,3.49-1.19l.92-1.51c.92-1.51.53-3.49-.92-4.28s-3.16-2.83-3.75-4.54l-.13-.33c-.59-1.71-1.91-2.63-2.96-2.04-1.05.59-3.29.92-5.14.66l-5.66-.66c-1.78-.2-4.35-1.38-5.73-2.57l-3.42-3.03h.26Z"/>
      <path class="cls-1" d="M295.12,469.22c-.79-1.45-2.77-2.04-4.41-1.32l-10.93,4.87c-1.65.72-4.48,1.32-6.32,1.32h-3.03c-1.84,0-4.02.92-4.87,2.04s-.99,3.42-.26,5.07l.53,1.19c.72,1.65,1.65,3.62,2.11,4.28s.33,1.84-.2,2.5,0,1.19,1.19,1.12c1.19-.07,3.36-.92,4.87-1.91l.2-.13c1.51-.99,4.15-1.25,5.79-.53l1.71.66c1.65.66,3.16,0,3.36-1.51.2-1.51,1.19-3.03,2.3-3.36s1.58-1.84,1.05-3.29.4-3.42,1.91-4.41l3.62-2.3c1.51-.99,2.11-2.96,1.38-4.41h0v.13h0Z"/>
      <path class="cls-1" d="M319.87,316.35c.59,1.58,1.45,2.7,2.04,2.63s1.05-.86,1.05-1.58,1.19-2.24,2.63-3.29l.4-.33c1.45-1.05,4.02-2.24,5.66-2.57s3.56-.26,4.21.13c.66.4,2.3.26,3.69-.33,1.38-.59,3.95-.99,5.66-.92,1.71.07,3.69-.53,4.35-1.32s1.98-.72,2.83.13c.86.86,2.7,1.45,3.95,1.32s3.56.46,5.14,1.45l3.95,2.44c1.51.92,3.49.72,4.41-.53.92-1.25,2.63-2.17,3.88-2.11,1.25.07,2.37-.99,2.5-2.37.13-1.38.92-3.23,1.71-4.15.79-.92.72-2.9-.26-4.41l-1.78-2.83c-.99-1.51-2.37-2.7-3.09-2.63s-1.12-1.32-.79-3.03l.13-.59c.33-1.78-.53-3.88-1.91-4.61-1.38-.72-3.56-1.51-4.81-1.65s-2.9.33-3.62.99-2.63.59-4.21-.33l-5.53-3.09c-1.58-.86-4.08-.72-5.53.33l-1.71,1.25c-1.45,1.05-2.17,3.36-1.58,5l.92,2.57c.59,1.71.13,4.28-.99,5.66l-.79.92c-1.19,1.38-2.9,2.3-3.88,2.11s-2.24-1.45-2.83-2.63-2.17-2.7-3.56-3.36c-1.38-.66-2.77-1.91-3.09-2.7s-1.78-.59-3.23.46l-1.45,1.05c-1.45,1.05-2.7,3.42-2.77,5.2v1.12c-.07,1.84-.72,4.35-1.45,5.6s-1.32,3.62-1.32,5.2.46,4.15.99,5.66h0v.13h.07Z"/>
      <path class="cls-1" d="M339.76,338.41c.2,1.78,1.65,3.95,3.29,4.74l.2.13c1.65.79,3.29,2.24,3.69,3.16s1.98,1.19,3.49.59,3.23-.66,3.82-.2c.59.46,1.38.26,1.71-.53s1.91-2.04,3.56-2.83l3.95-1.91c1.65-.79,2.63-2.9,2.24-4.61l-.79-3.36c-.39-1.78,0-4.48.86-6.06l.13-.2c.86-1.58,2.5-3.62,3.62-4.48s1.12-1.78,0-1.91c-1.12-.13-1.78-1.38-1.58-2.63s-.92-3.16-2.44-4.08l-3.95-2.44c-1.51-.92-3.82-1.58-5.14-1.45-1.32.13-3.09-.4-3.95-1.32-.86-.92-2.17-.92-2.83-.13s-2.63,1.38-4.35,1.32c-1.71-.07-4.28.33-5.66.92-1.38.59-3.09.72-3.69.33-.59-.4-2.57-.46-4.21-.13s-4.21,1.45-5.66,2.57l-.4.33c-1.45,1.05-2.63,2.57-2.63,3.29s-.46,1.45-1.05,1.58-.59,1.65-.07,3.36l1.32,4.48c.53,1.71,2.3,3.75,3.95,4.48l1.05.46c1.65.72,4.08.99,5.4.59,1.32-.4,3.16-.07,4.08.72s1.84,2.96,2.04,4.74v.53h0v-.07Z"/>
      <path class="cls-1" d="M266.55,360.59c.33,1.19.99,3.56,1.51,5.27l.33,1.19c.53,1.71.13,4.48-.72,5.99h0c-.92,1.58-.72,3.56.46,4.48,1.19.92,2.37,3.09,2.63,4.87l1.38,9.02c.26,1.78,1.05,4.61,1.71,6.32l1.32,3.42c.66,1.71,2.57,3.56,4.28,4.21l5.93,2.17c1.71.66,3.75,2.44,4.61,4.08l1.25,2.37c.86,1.58,2.17,1.58,3.03,0l.13-.2c.79-1.65,2.96-2.63,4.74-2.3l.66.13c1.78.33,3.56,1.71,3.95,2.96.4,1.25,2.17,2.3,4.02,2.3h.2c1.84,0,4.08,1.25,5.14,2.77l.46.72c.99,1.51,3.09,2.37,4.61,1.91s4.02,0,5.46,1.19l.33.26c1.45,1.12,3.69,1.05,5-.13,1.32-1.19,3.42-1.71,4.61-1.19,1.19.53,3.62.46,5.33-.13l1.98-.66c1.71-.59,4.54-.53,6.25,0l4.87,1.71c1.71.59,2.57-.26,1.91-1.98l-.72-1.91c-.66-1.71-.53-4.41.26-6.06l4.21-8.82c.79-1.65,2.44-3.36,3.62-3.88s1.84-2.37,1.38-4.08l-.13-.53c-.46-1.78-1.65-4.41-2.77-5.79l-3.42-4.54c-1.12-1.45-1.84-4.08-1.71-5.93v-1.05c.2-1.78-1.05-3.75-2.7-4.28s-2.11-2.11-.92-3.49l2.5-2.96c1.19-1.38,1.51-3.88.79-5.53l-6.58-14.88c-.72-1.65-2.63-3.69-4.28-4.48l-.2-.13c-1.65-.79-4.41-1.25-6.19-.99l-20.67,3.09c-1.78.26-4.67.92-6.45,1.38l-2.04.59c-1.71.53-3.95-.33-4.87-1.91l-.99-1.58c-.92-1.58-3.03-2.24-4.74-1.51l-9.48,4.15c-1.65.72-3.56,2.37-4.15,3.69-.59,1.32-2.5,2.83-4.21,3.49l-10.34,3.82c-1.71.66-2.83,2.11-2.5,3.23h-.07v.13Z"/>
      <path class="cls-1" d="M264.97,437.69c1.19,1.38.99,3.49-.33,4.67l-5.4,4.81c-1.38,1.19-2.17,3.62-1.84,5.4l.59,2.96c.33,1.78-.79,2.77-2.5,2.3l-1.71-.53c-1.71-.53-4.54-.53-6.32,0l-12.44,3.82c-1.71.53-4.48.33-6.12-.39l-1.51-.66c-1.65-.72-4.41-1.84-6.12-2.44l-2.96-1.05c-1.71-.59-3.75-.26-4.61.79s-2.96,1.65-4.74,1.32l-1.65-.26c-1.78-.33-3.23-2.04-3.23-3.82v-.53c0-1.84.4-4.74.99-6.45l.59-2.04c.53-1.71,1.91-4.28,3.03-5.73l.46-.53c1.12-1.38.72-3.16-.92-3.88l-1.51-.66c-1.65-.72-4.48-1.32-6.25-1.25-1.78.07-3.82-.99-4.61-2.24s-1.84-3.75-2.37-5.46l-1.58-4.94c-.59-1.71-.2-4.08.79-5.27s.99-3.36.07-4.94l-.53-.92c-.92-1.58-1.12-4.15-.4-5.86l.79-1.78c.72-1.65.99-4.48.53-6.25l-.46-1.84c-.4-1.78.72-3.23,2.5-3.23h1.32c1.84,0,3.09-1.45,2.83-3.29l-.66-4.48c-.26-1.78.59-4.15,1.84-5.27,1.25-1.12,2.3-3.49,2.37-5.33v-5.99c.07-1.84,1.58-3.62,3.29-4.08h.26c1.78-.46,4.02.46,4.94,1.98l1.65,2.63c.99,1.51,1.84,1.32,1.91-.53l.13-2.5c.07-1.84.33-4.74.59-6.58l1.32-9.61c.26-1.78,1.91-3.29,3.75-3.29h.79c1.84,0,4.15,1.25,5.14,2.7l1.91,2.77c.99,1.51,3.36,2.57,5.14,2.37l1.25-.13c1.78-.2,2.83,1.05,2.3,2.77l-.13.33c-.53,1.71.33,2.44,1.98,1.65l9.15-4.87c1.58-.86,4.35-1.98,6.06-2.5l2.24-.66c1.71-.53,3.42.53,3.69,2.3l.53,3.09c.33,1.78,1.65,4.21,3.03,5.4l.79.66c1.38,1.19,2.9,3.62,3.42,5.33l.33,1.19c.53,1.71.13,4.48-.72,5.99h0c-.92,1.58-.72,3.56.46,4.48,1.19.92,2.37,3.09,2.63,4.87l1.38,9.02c.26,1.78,1.05,4.61,1.71,6.32l1.32,3.42c.66,1.71-.26,3.36-2.04,3.75l-2.17.46c-1.78.39-4.41,1.51-5.93,2.57l-5,3.49c-1.51,1.05-4.15,2.3-5.86,2.77l-2.96.86c-1.71.53-2.17,1.98-.92,3.29l1.58,1.65c1.25,1.32,1.91,3.36,1.51,4.61s.46,3.03,1.98,4.02l1.45.99c1.51.99,3.69,2.96,4.87,4.35l3.29,3.88h0l.07.07Z"/>
      <path class="cls-1" d="M201.7,364.94c.72-.92,1.32-.13,1.32,1.65v5.99c-.07,1.84-1.12,4.21-2.44,5.33-1.32,1.12-2.11,3.49-1.84,5.27l.66,4.48c.26,1.78-.99,3.29-2.83,3.29h-1.32c-1.84,0-2.96,1.45-2.5,3.23l.46,1.84c.4,1.78.2,4.54-.53,6.25l-.79,1.78c-.72,1.65-1.98,3.16-2.83,3.36s-1.65-1.12-1.78-2.96v-.59c-.13-1.78-1.65-3.82-3.29-4.54l-5-2.04c-1.65-.66-4.54-1.19-6.32-1.05l-3.16.2c-1.78.13-2.37-.92-1.25-2.37l2.9-3.69c1.12-1.45,2.7-2.96,3.56-3.42.86-.46,2.04-2.24,2.63-3.95l2.37-6.65c.59-1.71,2.04-3.16,3.23-3.23s2.77-1.05,3.62-2.11,2.96-2.24,4.74-2.57l5.79-1.12c1.78-.33,3.82-1.38,4.61-2.24h0v-.13h0Z"/>
      <path class="cls-1" d="M160.82,399.04c-1.65.79-2.44,2.77-1.71,4.48l.33.72c.72,1.65,2.44,3.29,3.88,3.62s3.09,1.84,3.62,3.36,2.11,2.83,3.42,2.96c1.32.13,2.44,1.45,2.44,2.96s1.32,2.04,2.96,1.25l.33-.13c1.65-.79,2.83-.26,2.7,1.25-.13,1.51.99,3.42,2.57,4.35l5.27,3.03c.4.26.92-.13.86-.59l-.72-4.21c-.13-.86,0-1.78.53-2.5l1.19-1.78c.33-.53,1.05-.72,1.65-.46h0c.46.2,1.65-.53,2.63-1.71s.99-3.36.07-4.94l-.53-.92c-.92-1.58-2.37-2.63-3.23-2.5s-1.65-1.12-1.78-2.96v-.59c-.13-1.78-1.65-3.82-3.29-4.54l-5-2.04c-1.65-.66-4.54-1.19-6.32-1.05l-3.16.2c-1.78.13-4.61.86-6.25,1.65l-2.37,1.12h-.07Z"/>
      <path class="cls-1" d="M193.54,425.77c.59,1.71-.46,2.83-2.24,2.44l-.46-.13c-1.78-.39-3.03-1.12-2.83-1.65s0-2.04-.59-3.42c-.59-1.38-.4-3.29.33-4.35s1.71-1.71,2.24-1.45,1.38,1.84,1.91,3.56l1.58,4.94h.07v.07Z"/>
      <path class="cls-1" d="M217.43,341.37c0,1.84,1.51,3.29,3.36,3.29h.79c1.84,0,3.49-1.45,3.75-3.29l.4-2.83c.26-1.78,1.32-2.04,2.37-.59l.86,1.19c1.05,1.45,3.36,2.7,5.07,2.77,1.71.07,2.77-1.32,2.3-3.03l-.59-2.3c-.46-1.78-2.24-3.56-3.95-4.02-1.71-.46-2.7-2.24-2.17-3.95l.4-1.25c.53-1.71,1.91-2.5,3.03-1.65s2.3,0,2.63-1.78l.2-.92c.33-1.78-.66-3.95-2.3-4.81h-.07c-1.58-.92-2.63-3.09-2.3-4.87l1.78-9.88c.33-1.78-.53-2.24-1.84-.99l-4.54,4.28c-1.32,1.25-3.88,2.5-5.66,2.83l-2.83.53c-1.78.33-3.42,2.04-3.69,3.82l-2.3,17.64c-.26,1.78.86,3.49,2.44,3.69,1.58.2,2.9,1.91,2.9,3.75v2.37h0Z"/>
      <path class="cls-1" d="M56.8,328.86c-1.71-.53-2.77.53-2.24,2.24l.99,3.56c.46,1.71-.53,3.62-2.24,4.15l-1.05.33c-1.71.53-1.91,1.78-.4,2.77l3.88,2.5c1.51.99,1.65,2.7.26,3.88l-10.4,8.76c-1.38,1.19-2.24,3.56-1.84,5.33l1.25,5.73c.4,1.78,2.17,3.42,3.95,3.75l4.67.72c1.78.26,4.41-.39,5.86-1.45l.13-.13c1.45-1.12,4.08-1.98,5.93-1.98h10.34c1.84,0,4.08-1.25,5.07-2.77l3.23-5c.99-1.51,1.51-4.21,1.12-5.99l-.33-1.51c-.4-1.78-.26-4.67.26-6.39l1.19-4.08c.53-1.71-.13-4.15-1.51-5.4l-2.24-2.04c-1.32-1.25-3.29-1.45-4.28-.53s-2.77.53-3.95-.86l-.46-.53c-1.12-1.38-.99-3.62.26-4.87l4.61-4.61c1.25-1.25.86-2.7-.86-3.16l-4.67-1.19c-1.78-.46-3.56.66-4.08,2.37l-1.71,6.12c-.46,1.71-2.3,2.77-4.02,2.24l-6.85-2.04h.13v.07Z"/>
      <path class="cls-1" d="M370.37,193.63c1.51.99,2.5,3.23,2.11,5l-3.29,16.79c-.33,1.78-1.32,4.54-2.11,6.19l-8.82,17.38c-.79,1.65-2.96,3.16-4.74,3.36l-4.08.53c-1.78.26-4.21,1.58-5.33,3.03l-.53.59c-1.12,1.38-3.49,2.83-5.27,3.23l-1.84.4c-1.78.4-4.35,1.65-5.66,2.83l-.26.2c-1.38,1.19-3.75,1.45-5.33.59l-1.45-.79c-1.58-.86-4.35-1.78-6.19-1.91l-1.78-.2c-1.78-.2-3.29-1.84-3.29-3.62v-2.04c0-1.84-.46-4.67-1.05-6.39l-.72-2.11c-.59-1.71-1.65-4.48-2.3-6.19l-3.62-9.09c-.66-1.71-.99-4.54-.66-6.32l.66-3.82c.33-1.78,1.71-3.95,3.16-4.81s2.83-3.03,3.16-4.81l.53-2.96c.33-1.78,1.65-4.21,3.03-5.46l1.71-1.58c1.32-1.25,2.7-3.69,3.03-5.46l.86-4.41c.33-1.78,1.71-3.95,3.03-4.81s1.65-2.83.72-4.41l-1.45-2.44c-.92-1.58-3.16-3.16-4.87-3.56s-3.75-2.04-4.48-3.75l-1.91-4.28c-.72-1.65-1.25-4.48-1.19-6.32v-.59c.07-1.84-.66-4.54-1.65-6.06l-1.84-2.83c-.99-1.51-2.04-4.21-2.3-5.99l-.13-.92c-.26-1.78-1.78-4.02-3.29-4.94l-11.59-6.98c-1.58-.92-2.3-3.09-1.58-4.74l.4-1.05c.66-1.71,2.24-1.98,3.42-.59l3.09,3.42c1.19,1.38,3.49,1.71,5,.79l.66-.4c1.58-.92,4.28-1.38,6.06-1.05l.72.13c1.78.33,3.29-.86,3.36-2.63l.59-12.38c.07-1.84,1.32-4.21,2.7-5.33l2.57-1.98c1.45-1.12,3.88-1.25,5.4-.33l5.33,3.23c1.58.92,2.3,3.09,1.65,4.74l-.72,1.91c-.66,1.71-.66,4.48-.07,6.19l1.84,5c.66,1.71,2.44,3.82,3.95,4.74l4.54,2.7c1.58.92,2.63,3.16,2.37,4.94l-1.12,7.83c-.26,1.78.46,4.48,1.51,5.93l7.37,9.94c1.05,1.45,1.98,4.15,1.98,5.93v1.45c0,1.84.99,4.41,2.17,5.79l.99,1.05c1.19,1.38,2.17,3.75,2.17,5.33s1.32,3.03,2.9,3.29,2.7,1.91,2.44,3.69l-.33,2.37c-.2,1.78.79,4.08,2.37,5.07l7.37,4.74h-.07Z"/>
      <g>
        <path class="cls-1" d="M22.56,594.5c-1.65-.39-3.03-2.17-3.03-4.02s.66-3.95,1.45-4.74c.79-.79,1.65-1.98,1.91-2.57.26-.59,1.38-1.25,2.63-1.45s2.3-.79,2.5-1.38-.26-1.05-.99-.99-1.65-1.38-2.11-3.09l-.2-.66c0-.13-.13-.26-.33-.33h-.26c-.33-.13-.46-.46-.26-.72l1.51-1.98c.13-.2,0-.46-.13-.59h-.13c-.26-.26-.26-.66,0-.79l4.08-2.3s.13-.13.2-.2l.92-1.98c0-.13,0-.33-.13-.46l-.53-.53c-1.32-1.25-2.24-3.75-2.11-5.53v-.72l-.33-.72c-.79-1.65,0-2.63,1.65-2.3,1.65.33,3.82-.59,4.74-2.17l.79-1.32v-.39h0c-.79-1.65-.59-3.29.4-3.82.99-.53,1.65-1.32,1.51-1.91s.2-2.37.79-3.95c.59-1.58.66-3.62.33-4.48s-.2-1.51.46-1.38,1.65-.46,2.3-1.25,2.17-1.84,3.42-2.37c1.25-.53,2.5-1.58,2.83-2.37s-.2-1.71-1.19-2.04c-.99-.33-1.65-1.65-1.51-2.96s-.86-2.5-2.24-2.7-2.83-.66-3.29-.99-1.05-.26-1.32.2-1.32.66-2.37.39-2.24-.72-2.5-.99-1.38-.46-2.37-.33h0c-.26,0-.46-.2-.46-.46h0c0-.33-.33-.53-.59-.39h0c-1.12.53-2.3.59-2.63.2s0-1.12.66-1.65.99-1.32.79-1.91-1.91-.79-3.69-.46h-.13c-1.78.33-3.36-.2-3.42-1.12s-.13-2.83-.07-4.21.79-2.9,1.58-3.36,1.38-1.51,1.25-2.37-1.12-1.58-2.24-1.58-2.04-1.38-2.11-3.09,1.38-3.16,3.16-3.36h.33c1.78-.13,4.61-.92,6.19-1.78l4.21-2.17c1.58-.86,3.82-1.32,4.87-1.12,1.05.2,2.83,1.58,3.88,3.09l.66.92c1.05,1.45,2.24,2.37,2.63,1.98s1.84-.33,3.16.2c1.32.53,3.88.79,5.73.72h.53c1.84-.13,4.54.59,6.06,1.58h.13c1.51,1.05,4.08,2.5,5.73,3.29l2.44,1.19c1.65.79,4.41,1.38,6.25,1.32l2.77-.13c1.84,0,4.48.79,5.86,1.91l.53.46c1.38,1.12,3.36,1.58,4.35.99s2.7-.2,3.82.79,3.49,1.84,5.33,1.78h.13c1.84,0,4.21.53,5.27,1.32s2.17,2.11,2.37,2.96c.2.86,1.58,1.98,3.03,2.57,1.45.59,3.09,1.78,3.62,2.63s1.84,1.51,2.9,1.45c1.05-.07,2.3.46,2.63,1.19.33.72,1.25,1.19,1.98,1.05s2.57,0,4.02.53c1.45.53,2.9.2,3.03-.59s1.32-.66,2.57.13,2.9,1.58,3.62,1.71,1.38,1.12,1.58,2.24,1.05,2.04,1.91,1.98,1.98.13,2.5.39,1.12.86,1.38,1.32,1.19.66,2.04.33c.86-.33,2.44,0,3.49.66,1.05.66,2.37.66,3.03,0,.66-.66,2.17-.92,3.36-.66s2.37.99,2.57,1.65-.2,1.38-.79,1.71-.99,1.78-.86,3.23-1.12,3.23-2.77,3.95l-5.27,2.3c-1.65.72-3.56,1.98-4.28,2.83s-2.7,1.71-4.54,1.98l-6.32.92c-1.78.26-4.08,1.19-5.07,2.04s-1.32,1.98-.79,2.44,0,1.32-1.38,1.84-2.83,1.84-3.36,2.96c-.53,1.12-2.04,3.09-3.29,4.41l-4.61,4.74c-1.25,1.32-2.17,3.82-2.04,5.66l.2,2.77c.13,1.78,1.12,4.35,2.24,5.6,1.12,1.25.66,2.9-1.05,3.56l-1.71.72c-1.65.72-3.49,2.04-4.02,3.03s-1.45,1.98-1.98,2.3-1.32,1.98-1.71,3.75l-.4,2.04c-.4,1.78-2.11,2.96-3.95,2.7h-.13c-1.78-.33-4.54.2-6.06,1.12l-1.25.72c-1.58.92-3.69,2.9-4.74,4.35l-1.25,1.71c-1.05,1.45-2.9,2.11-4.08,1.38-1.19-.72-2.9-.86-3.82-.33-.92.53-2.7.53-4.08-.13-1.38-.66-3.95-1.32-5.73-1.65l-8.56-1.32c-1.78-.26-4.02.2-4.94,1.05s-3.09,1.45-4.81,1.25c-1.71-.2-3.82.59-4.67,1.71-.86,1.12-2.3,2.3-3.29,2.7s-2.5-.13-3.29-1.19-1.98-1.84-2.5-1.84-1.38-1.45-1.84-3.16l-.92-3.23c-.53-1.71-.79-3.82-.59-4.61s-.66-2.57-1.84-3.95l-.2-.26c-1.19-1.38-3.49-2.83-5.14-3.29h0l-.2.26h0Z"/>
        <path class="cls-1" d="M150.35,576.4c1.05.46.92,1.84-.33,3.16l-1.78,1.91c-1.25,1.32-2.9,1.32-3.69,0-.79-1.32-2.57-2.83-4.02-3.36-1.45-.53-1.25-1.65.4-2.44l5.2-2.57c1.65-.79,2.77-.59,2.63.53s.53,2.3,1.58,2.7h0v.07Z"/>
        <path class="cls-1" d="M158.12,572.19c-1.58,0-2.5.53-1.98,1.19.53.66,2.04,1.51,3.36,1.98,1.32.46,2.24-.13,1.98-1.19s-1.78-1.98-3.36-1.98Z"/>
        <path class="cls-1" d="M137.12,580.02c-.53.2-1.19,1.38-1.51,2.5s.59,1.38,1.98.46,2.11-2.11,1.51-2.5-1.51-.66-1.98-.46Z"/>
        <path class="cls-1" d="M141.59,584.5c-.53-.33-1.58-.33-2.3,0s-.86.92-.26,1.25,1.65.33,2.3,0,.79-.92.26-1.25Z"/>
      </g>
      <g>
        <path class="cls-1" d="M204.14,517.21c-1.51,0-2.17-1.51-1.51-3.16v-.13c.72-1.65.26-2.83-.99-2.63s-3.36-.66-4.61-1.91h0c-1.25-1.32-1.78-3.36-1.12-4.67s.33-3.49-.72-5l-.59-.86c-1.05-1.45-.66-3.42.92-4.41l.79-.46c1.58-.92,1.91-2.9.86-4.35l-.79-1.12c-1.05-1.45-1.32-3.23-.46-3.88s2.96-1.12,4.74-.92l2.04.2c1.78.2,4.15-.86,5.27-2.3l2.5-3.29c1.05-1.45,2.7-1.32,3.62.2l2.57,4.28c.92,1.58,2.11,1.45,2.57-.33l1.38-4.67c.53-1.71,2.17-2.3,3.62-1.32l2.11,1.38c1.51.99,3.29.46,4.02-1.19l2.11-4.81c.72-1.65,2.5-2.5,3.88-1.91s3.23.2,4.02-.86,2.96-2.17,4.74-2.44l2.7-.33c1.78-.26,3.82.86,4.41,2.44s2.63,3.09,4.41,3.42l7.24,1.32c1.78.33,2.5,1.51,1.65,2.63s-.99,3.42-.26,5.07l.53,1.19c.72,1.65,0,3.56-1.71,4.21l-8.95,3.62c-1.65.66-2.5,2.57-1.78,4.28l1.25,2.96c.72,1.65.59,3.88-.26,5-.86,1.12-.92,3.29-.2,4.94l1.12,2.44c.72,1.65,2.63,3.75,4.21,4.67l6.45,3.88c1.58.92,3.36,3.09,4.02,4.74l4.15,10.8c.66,1.71,2.37,3.95,3.88,4.94l4.61,3.23c1.45,1.05,4.15,1.78,5.99,1.65l6.25-.46c1.78-.13,2.77,1.19,2.17,2.9l-.13.46c-.59,1.71.33,3.62,1.98,4.28l7.9,2.96c1.71.66,4.28,1.98,5.79,3.03l11.85,7.97c1.51.99,2.5,3.29,2.17,5.07l-.13.79c-.33,1.78-1.71,2.9-3.09,2.5s-2.83-2.11-3.16-3.75c-.33-1.65-2.11-2.96-3.88-2.96s-4.35-.46-5.73-1.12c-1.38-.66-2.83.26-3.23,2.04l-1.78,7.04c-.46,1.78.53,3.82,2.17,4.61l1.78.86c1.65.79,3.23,2.77,3.62,4.48.4,1.71-.72,3.82-2.3,4.67l-1.25.66c-1.58.86-2.83,2.96-2.77,4.67.07,1.71-.66,3.56-1.58,4.08s-2.17,2.37-2.77,4.08l-.13.33c-.59,1.71-2.37,2.37-3.95,1.45l-.86-.53c-1.58-.92-3.29-.26-3.95,1.45l-2.11,6.06c-.59,1.71-.26,4.35.72,5.86l.33.46c.99,1.51.99,3.88.07,5.2s-3.23,2.3-5,2.24l-1.38-.13c-1.78-.13-3.88-1.45-4.54-2.96-.66-1.51-2.77-2.9-4.54-3.03h-.86c-1.78-.26-4.54-1.25-5.99-2.24l-3.36-2.24c-1.51-.99-3.82-1.65-5.2-1.38s-2.63-1.05-2.9-2.83l-.2-1.58c-.26-1.78.99-3.75,2.7-4.28l4.28-1.38c1.71-.53,4.28-.13,5.6.99s3.88,1.51,5.6.86l6.91-2.5c1.71-.59,4.54-1.25,6.39-1.45l2.9-.26c1.78-.2,3.95-1.38,4.74-2.63s1.19-2.96.86-3.69.33-1.91,1.58-2.7c1.25-.79,1.58-2.7.92-4.35l-5.2-11.92c-.72-1.65-2.77-3.29-4.54-3.56l-2.7-.46c-1.78-.33-3.62-1.98-4.08-3.75v-.2c-.53-1.78-2.04-2.77-3.49-2.24s-2.77,0-2.96-1.32-1.51-3.16-2.96-4.21l-2.63-1.98c-1.45-1.05-4.15-1.91-5.93-1.78h-.53c-1.84.13-4.35-.86-5.66-2.11l-5.14-4.94c-1.32-1.25-3.62-3.09-5.2-4.02l-6.85-4.21c-1.51-.99-3.69-2.96-4.74-4.41l-2.44-3.36c-1.05-1.45-2.37-4.08-2.83-5.79l-2.83-10.01c-.53-1.78-2.24-3.82-3.88-4.54l-8.43-3.95c-1.65-.79-4.02-.33-5.33.92l-.59.59c-1.25,1.25-2.9,3.42-3.62,4.74s-2.57,2.37-4.08,2.3h-.26v.07Z"/>
        <path class="cls-1" d="M221.71,557.77c-1.38-.59-3.69-.13-5.07.99l-3.29,2.77c-1.38,1.19-3.42,1.32-4.54.39s-2.04-.26-2.04,1.58v.86c0,1.84.59,3.29,1.32,3.29s1.58,1.45,1.84,3.23h0c.26,1.84.2,4.15-.2,5.14s-.66,3.29-.66,5.14v5.14c.13,1.84.99,4.21,1.98,5.33s2.63,1.71,3.62,1.32,1.91-1.98,2.04-3.62,1.51-2.24,3.03-1.45,3.03,0,3.29-1.84l1.32-8.62c.26-1.78.13-3.82-.4-4.48-.53-.66-.13-2.11.79-3.16s.92-3.23,0-4.81l-.2-.33c-.92-1.58-1.38-3.49-1.05-4.28s-.59-1.98-1.98-2.57h.2Z"/>
      </g>
      <g>
        <path class="cls-1" d="M152.39,532.03c.72,1.58.26,2.63-.92,2.37-1.19-.26-2.77,0-3.36.66s-1.98.59-3.03,0-2.57-.99-3.49-.66-1.84.13-2.04-.33-.86-1.12-1.38-1.32-.86-1.05-.79-1.84-.79-1.65-1.91-1.98-2.57-.72-3.29-.86-2.3-.86-3.62-1.71-2.44-.92-2.57-.13-1.51.99-3.03.59c-1.51-.39-3.36-.66-4.02-.53s-1.58-.33-1.98-1.05-1.58-1.25-2.63-1.19-2.37-.59-2.9-1.45-2.11-2.04-3.62-2.63c-1.51-.59-2.83-1.78-3.03-2.57s-1.25-2.17-2.37-2.96c-1.12-.79-1.38-1.71-.72-2.04s1.78-1.98,2.44-3.69l2.7-7.24c.66-1.71,1.05-4.41.86-5.99s.07-4.35.53-6.12l4.15-15.87c.46-1.78-.4-4.02-1.91-5l-1.45-.99c-1.51-.99-3.03-3.29-3.36-5.07l-2.04-10.6c-.33-1.78-1.91-3.95-3.49-4.87l-14.94-8.56c-1.58-.92-2.83-3.09-2.83-4.94v-2.5c0-1.84,1.45-3.42,3.29-3.56l9.41-.86c1.78-.13,4.15.92,5.14,2.44l.72.99c1.05,1.51,2.77,2.24,3.88,1.71,1.12-.53,3.42-.66,5.2-.26l2.77.66c1.78.39,3.16-.72,3.09-2.5v-1.78c-.13-1.84-.66-4.74-1.19-6.45l-.99-3.36c-.53-1.71.4-2.77,2.04-2.24s3.36,1.98,3.82,3.23c.46,1.25,2.17,2.83,3.88,3.56l3.36,1.32c1.71.66,3.69.66,4.48,0s1.51-2.24,1.71-3.42c.2-1.19,1.65-2.57,3.36-3.16l8.76-2.9c1.71-.59,3.23-2.5,3.42-4.28l.4-4.81c.13-1.78,1.78-3.49,3.56-3.82l2.24-.33c1.78-.26,3.82.86,4.54,2.5l.33.72c.72,1.65,2.44,3.29,3.88,3.62s3.09,1.84,3.62,3.36c.53,1.51,2.11,2.83,3.42,2.96,1.32.13,2.44,1.45,2.44,2.96s1.32,2.04,2.96,1.25l.33-.13c1.65-.79,2.83-.26,2.7,1.25s.99,3.42,2.57,4.35l3.49,1.98c1.58.92,4.28,1.98,6.06,2.3l.46.13c1.78.39,3.82,1.71,4.61,3.03s2.83,2.3,4.61,2.24c1.78-.07,4.54.53,6.25,1.25l1.51.66c1.65.72,2.04,2.5.92,3.88l-.46.53c-1.12,1.38-2.5,3.95-3.03,5.73l-.59,2.04c-.53,1.71-.99,4.61-.99,6.45v.53c0,1.84-1.38,3.75-3.16,4.28l-.72.2c-1.71.53-3.69,2.37-4.35,4.08-.66,1.71-2.24,4.08-3.56,5.33l-2.3,2.17c-1.32,1.25-2.5,3.75-2.7,5.53v.13c-.2,1.78.99,2.57,2.57,1.65l1.91-1.05c1.58-.86,3.29-.2,3.88,1.51l.53,1.78c.53,1.71.33,3.69-.53,4.41s-.59,2.44.46,3.88l.79,1.12c1.05,1.45.72,3.42-.86,4.35l-.79.46c-1.58.92-1.98,2.9-.92,4.41l.59.86c1.05,1.45,1.38,3.69.72,5-.66,1.32-.13,3.36,1.12,4.61h0c1.25,1.32,3.36,2.17,4.61,1.91,1.25-.26,1.71.92,1.05,2.63v.13c-.72,1.65-2.44,4.02-3.82,5.14l-5.46,4.61c-1.38,1.19-4.02,2.17-5.79,2.3h-2.17c-1.84.2-4.35-.79-5.6-2.11l-2.96-2.96c-1.25-1.25-3.82-2.44-5.6-2.63l-6.32-.53c-1.78-.13-4.48.59-5.99,1.65l-3.75,2.7c-1.45,1.05-3.03,3.03-3.42,4.35s-.13,3.75.53,5.33h0l.07.07Z"/>
        <path class="cls-1" d="M220.07,531.83c1.19-1.38,2.3-2.04,2.5-1.38s.07,1.98-.33,3.03c-.4,1.05-.26,2.57.33,3.42s.59,2.9,0,4.61v.13c-.66,1.71-1.12,4.41-1.12,5.99s-.72,3.95-1.58,5.2-1.98,1.71-2.44.99-1.45-1.51-2.17-1.78-1.65-1.19-2.04-2.11-.46-2.7-.13-4.08.07-3.42-.66-4.61-.66-3.03.13-4.08c.79-1.05,2.17-2.04,3.09-2.17.92-.13,2.63-1.38,3.82-2.77l.46-.53h0l.13.13Z"/>
      </g>
      <g>
        <path class="cls-1" d="M372.54,543.42c.99-1.25,2.37-2.3,3.03-2.3s1.65-.39,2.11-.86,1.98-.92,3.36-1.05,3.62-1.12,5.07-2.17,4.02-1.58,5.66-1.05,3.69.72,4.41.46,1.98-.13,2.77.39c.79.53,2.83.33,4.48-.33l3.82-1.58c1.65-.72,2.57-2.44,1.98-3.88s-.33-2.77.53-2.96,2.77.53,4.21,1.51h0c1.51,1.05,1.84,2.77.79,3.82-1.05,1.05-1.71,2.7-1.45,3.75.26,1.05,0,2.63-.72,3.69s-2.63,1.98-4.35,2.17-4.28,0-5.73-.26c-1.45-.26-3.36.2-4.28,1.19s-2.7,1.51-3.88,1.19c-1.19-.33-2.63.39-3.16,1.58s-2.24,2.3-3.75,2.44c-1.51.13-1.65.86-.39,1.51,1.25.66,3.29,2.37,4.41,3.75l.26.33c1.19,1.38.92,2.11-.46,1.51s-2.24-.13-1.84.99-.39,1.65-1.78,1.19-2.11.2-1.65,1.38c.46,1.19-.2,2.3-1.45,2.44s-2.63-.86-3.09-2.17-2.04-3.16-3.56-4.15l-.86-.53c-1.51-.92-3.16-.26-3.56,1.51l-.2.92c-.39,1.78.26,3.95,1.45,4.87s2.44,2.5,2.77,3.56,1.78,2.7,3.23,3.56,3.03,2.5,3.42,3.49,2.11,2.3,3.88,2.83l4.08,1.25c1.71.53,4.21,2.04,5.46,3.29l2.9,2.96c1.25,1.32,1.65,3.03.79,3.82s-2.7.59-4.15-.46l-2.96-2.24c-1.45-1.12-4.02-2.57-5.66-3.29l-4.08-1.78c-1.65-.72-3.62-.79-4.28-.13s.13,1.58,1.91,2.11l3.09.92c1.71.53,4.48,1.65,5.99,2.57l.92.53c1.58.86,2.96,3.09,3.09,4.94l.13,1.51c.13,1.78-.92,2.37-2.37,1.25l-.79-.59c-1.45-1.12-3.88-1.32-5.46-.39-1.58.92-1.84,2.63-.53,3.95l1.58,1.65c1.25,1.32.79,2.3-.99,2.24h-3.09c-1.84-.13-2.37.99-1.25,2.37l.92,1.19c1.12,1.45,2.5,4.02,3.03,5.73l1.12,3.56c.53,1.71-.2,2.24-1.58,1.12l-.99-.79c-1.45-1.12-3.09-.66-3.75,1.05l-.33.79c-.66,1.71-1.51,1.91-1.98.46-.46-1.45-1.84-3.49-3.09-4.48s-2.83-.66-3.56.72c-.72,1.38-2.04,1.45-2.9.2s-1.38-3.56-1.05-5.07c.33-1.51-.66-3.69-2.04-4.81l-3.09-2.44c-1.45-1.12-1.51-3.03-.26-4.35l2.7-2.63c1.32-1.25,3.82-2.11,5.6-1.91l4.87.59c1.78.2,4.48-.2,6.06-.92,1.58-.72,1.25-1.45-.53-1.65l-8.62-.79c-1.78-.2-4.67.13-6.45.59l-.33.13c-1.71.53-3.82,1.12-4.61,1.32s-2.3-.79-3.29-2.3l-2.04-2.96c-1.05-1.51-2.9-3.75-4.15-5.07l-2.3-2.44c-1.25-1.32-2.96-2.83-3.75-3.42s-.72-1.25.13-1.51,1.51-1.51,1.51-2.9.92-3.03,2.04-3.75,2.5-2.7,3.09-4.41.99-4.35.86-5.86c-.13-1.51,1.25-3.23,2.96-3.75l2.63-.79c1.71-.53,3.49-1.91,3.88-3.03s2.24-2.11,4.08-2.17h.33c1.84-.13,4.08-1.25,5.14-2.5h-.07v.07Z"/>
        <path class="cls-1" d="M354.37,591.34c-.33-.86-1.05-.39-1.51,1.05-.46,1.45.46,2.63,2.17,2.7,1.71.07,2.44-.39,1.51-1.05s-1.84-1.84-2.17-2.7Z"/>
      </g>
      <path class="cls-1" d="M397.63,627.29c-.72-.66-1.45.26-1.58,2.04v.46c-.2,1.78,1.19,3.09,2.96,2.9l2.3-.26c1.78-.2,4.61-.13,6.19.13s3.09,1.12,3.36,1.84c.26.72,1.84.86,3.56.33l11.98-3.82c1.71-.53,3.23-2.11,3.36-3.49.13-1.38-1.05-1.78-2.63-.86l-1.19.66c-1.58.86-3.16,1.05-3.56.33s-2.17-.99-3.95-.66l-1.12.2c-1.78.33-3.69.13-4.28-.39-.59-.53-2.3-.2-3.82.72l-.59.39c-1.58.92-3.49.99-4.28.2s-2.3-.99-3.42-.46-2.57.46-3.29-.2h0v-.07Z"/>
      <path class="cls-1" d="M525.21,593.12c1.05-1.45.79-1.71-.53-.53l-5.99,5.14c-1.38,1.19-3.95,2.3-5.79,2.5l-1.51.2c-1.78.2-3.09,1.32-2.96,2.44.13,1.12-.39,2.04-1.32,2.04s-1.78.66-2.04,1.45-1.12,1.58-1.98,1.78-.86,1.45,0,2.83,2.63,2.5,3.82,2.5,2.57-.33,3.03-.79,1.32-.33,1.91.26c.59.59,1.25.39,1.45-.39s1.51-2.3,2.9-3.36c1.38-1.05,2.5-2.5,2.5-3.16s1.25-1.51,2.83-1.91c1.58-.4,1.91-1.51.79-2.5s-1.19-2.96-.13-4.41l2.9-3.95h0l.13-.13h0Z"/>
      <g>
        <path class="cls-1" d="M311.78,167.43c1.51-.86,2.17-2.9,1.45-4.61l-1.91-4.28c-.72-1.65-1.25-4.48-1.19-6.32v-.59c.07-1.84-.66-4.54-1.65-6.06l-1.84-2.83c-.99-1.51-2.04-4.21-2.3-5.99l-.13-.92c-.26-1.78-1.78-4.02-3.29-4.94l-11.59-6.98c-1.58-.92-3.29-.33-3.95,1.38l-.79,2.24c-.59,1.71-2.57,3.03-4.41,2.9l-3.95-.26c-1.84-.13-3.29,1.25-3.29,3.09v2.7c0,1.84-1.38,3.09-3.09,2.9-1.71-.2-3.09,1.12-3.09,2.9v7.04c0,1.84-.79,4.54-1.71,6.06l-3.09,5c-.99,1.51-1.71,4.02-1.71,5.53s-.99,2.7-2.24,2.7-2.11,1.45-1.98,3.29l.59,7.11c.13,1.78-.33,4.61-1.05,6.25l-2.24,4.81c-.72,1.65-.79,4.35-.13,6.06l.59,1.45c.66,1.65-.2,3.49-1.91,4.02l-4.08,1.32c-1.71.53-3.49,2.44-3.95,4.21l-2.11,7.97c-.46,1.78-.4,4.61.13,6.32l1.38,4.74c.53,1.71.66,4.61.33,6.39l-.46,2.7c-.33,1.78.59,4.15,1.98,5.27l.46.4c1.45,1.12,2.57,3.36,2.57,5s-1.12,3.29-2.5,3.75c-1.38.46-1.78,2.04-.92,3.49.86,1.45,1.51,4.15,1.51,5.99v1.25c0,1.84-1.19,4.21-2.57,5.33l-.2.2c-1.45,1.12-2.57,3.49-2.57,5.33v5.66c0,1.84-1.19,3.62-2.57,4.08-1.38.46-2.17,2.24-1.65,3.95l1.38,4.61c.53,1.71,1.84,2.9,2.96,2.57s1.71.86,1.32,2.63l-.59,2.77c-.33,1.78.13,4.48,1.12,5.99l1.84,2.9c.99,1.51,2.37,4.08,3.16,5.79l1.05,2.24c.72,1.65,1.05,4.41.59,6.19l-.2.79c-.4,1.78-2.04,3.95-3.62,4.87l-.66.4c-1.58.92-4.02,2.24-5.4,2.96s-2.3,2.57-1.98,4.08c.33,1.51,1.71,3.56,3.16,4.54s2.7,2.96,2.83,4.41,1.19,1.51,2.3.13l1.45-1.71c1.19-1.38,1.65-3.62,1.05-5.07-.59-1.45-.26-3.69.72-5.14s2.44-1.45,3.16-.13c.72,1.32,1.25,3.56,1.19,4.81-.07,1.25,1.19,1.98,2.83,1.58,1.65-.39,4.02-.72,5.27-.72s2.24-1.32,2.24-2.96.86-4.21,1.84-5.66l1.38-2.04c.99-1.51,3.29-2.57,5.14-2.3l.79.13c1.78.26,3.88-.92,4.61-2.57l1.19-2.63c.72-1.65,1.84-4.02,2.37-5.33s.66-3.75.13-5.46l-.33-1.05c-.53-1.71-.26-4.35.46-5.79s.79-4.02,0-5.66l-.53-1.19c-.72-1.65-.72-4.35,0-6.06l.4-.92c.72-1.65,2.3-4.08,3.62-5.33l1.45-1.45c1.25-1.25,3.42-3.36,4.74-4.61l1.32-1.25c1.32-1.25,2.77-3.69,3.23-5.46l.66-2.44c.46-1.78,0-4.41-.99-5.93l-1.19-1.78c-.99-1.51-3.23-3.23-4.94-3.82l-5.6-1.98c-1.71-.59-3.03-2.57-2.96-4.35l.13-3.16c.07-1.84-.46-4.61-1.19-6.32v-.13c-.79-1.65-.92-4.41-.33-6.12l.86-2.63c.59-1.71,1.71-4.41,2.57-6.06l2.57-4.87c.86-1.58,1.58-3.88,1.65-5.07s.99-2.57,2.11-3.09,2.11-1.98,2.17-3.23c.07-1.25,1.45-2.96,3.03-3.82l1.51-.79c1.58-.86,3.42-2.9,4.08-4.61l2.63-6.85c.66-1.71,0-3.95-1.51-5l-.33-.26c-1.45-1.05-1.84-3.03-.92-4.35s1.25-3.36.59-4.54-.2-2.37.99-2.77,2.3-2.11,2.5-3.82,1.38-2.83,2.7-2.37c1.32.46,3.62.07,5.14-.79h.2v.07Z"/>
        <path class="cls-1" d="M299.27,292.26c-1.12,0-2.83,1.25-3.75,2.83l-.26.4c-.92,1.58-1.32,4.28-.86,5.99l.72,2.7c.46,1.78,1.71,1.98,2.77.53l1.58-2.17c1.05-1.45,1.25-3.03.4-3.49-.86-.46-.86-2.11,0-3.75h0c.79-1.65.59-2.96-.53-2.96h-.07v-.07Z"/>
      </g>
      <g>
        <path class="cls-1" d="M342.13,283.1c0,1.84,1.25,2.44,2.77,1.38l1.71-1.25c1.45-1.05,3.95-1.19,5.53-.33l5.53,3.09c1.58.86,3.49.99,4.21.33s2.37-1.19,3.62-.99c1.25.2,2.77-1.05,3.36-2.7s0-4.08-1.12-5.46l-.66-.72c-1.19-1.38-2.5-3.88-2.96-5.66l-.53-2.3c-.39-1.78-.33-4.61.26-6.32l1.12-3.49c.53-1.71-.46-3.03-2.3-2.9l-12.64.86c-1.78.13-3.69,1.05-4.15,2.04s-1.91,1.65-3.23,1.38c-1.32-.26-3.42.46-4.81,1.51-1.38,1.05-2.24,2.5-1.98,3.23s-.66,1.51-2.04,1.65c-1.38.13-2.63.99-2.77,1.84s.4,1.65,1.25,1.71,1.32,1.05,1.12,2.11.26,3.29,1.12,4.87l.4.79c.86,1.58,2.77,2.37,4.28,1.78,1.51-.59,2.77.4,2.83,2.17v1.45h0l.07-.07Z"/>
        <path class="cls-1" d="M325.93,269.41c-1.12-.26-1.78.92-2.96,1.91-1.19.99-1.32,2.04-.4,2.3s1.84.99,2.04,1.58,1.32.46,2.37-.26c1.05-.72,1.98-2.04,1.98-2.96s-.92-1.84-1.98-2.04h0l-1.05-.53Z"/>
        <path class="cls-1" d="M326.79,277.31c-.99.53-2.77,1.51-3.88,2.11s-1.45,2.17-.79,3.49c.66,1.32,1.12,3.56.99,4.94-.13,1.38.53,1.25,1.45-.33l.2-.33c.92-1.58,2.57-4.02,3.75-5.4l1.05-1.25c1.12-1.38,1.38-2.9.59-3.36s-2.3-.33-3.29.2h-.07v-.07Z"/>
      </g>
      <path class="cls-1" d="M284.98,643.82c.59-1.51-.33-2.96-2.17-3.29h-.33c-1.78-.39-3.95-1.58-4.87-2.7s-2.04-.66-2.5,1.12l-.4,1.51c-.46,1.78.53,3.09,2.24,2.96s3.88.53,5,1.45c1.12.92,2.44.46,3.03-1.05h0Z"/>
      <path class="cls-1" d="M326.98,101.07c1.58.92,3.49.4,4.35-1.25l1.25-2.37c.86-1.58.13-3.49-1.51-4.15l-13.43-5.46c-1.65-.66-4.54-1.12-6.32-.99l-2.9.2c-1.78.13-4.02,1.51-4.87,3.09l-1.65,2.9c-.92,1.58-3.03,3.29-4.81,3.75l-5.93,1.71c-1.71.53-3.29,2.37-3.49,4.21l-.13,1.32c-.2,1.78-1.71,3.75-3.42,4.28l-2.3.72c-1.71.53-3.56,2.44-4.02,4.15v.13c-.53,1.71-2.17,3.88-3.75,4.81l-3.36,1.91c-1.58.92-3.23,3.03-3.69,4.81l-.59,2.3c-.46,1.78-2.24,3.69-3.88,4.35l-4.15,1.51c-1.71.59-2.57,2.5-1.98,4.21l1.51,4.21c.59,1.71.13,4.21-1.05,5.6l-1.05,1.25c-1.19,1.38-2.3,3.95-2.5,5.73l-.53,4.67c-.2,1.78-1.58,4.15-3.03,5.14l-1.38.99c-1.45,1.05-2.83,3.36-2.96,5.2l-.59,7.24c-.13,1.78-.79,4.67-1.38,6.39l-1.45,3.95c-.66,1.71-1.58,4.48-2.11,6.25l-.99,3.29c-.53,1.71-2.17,2.83-3.69,2.44-1.51-.39-3.49.53-4.41,2.11l-5,8.16c-.92,1.51-.33,2.3,1.38,1.71l4.21-1.45c1.71-.59,2.5.26,1.78,1.91l-2.3,5c-.72,1.65-2.77,2.57-4.48,1.98l-5.07-1.65c-1.71-.53-4.48-.4-6.12.33l-6.85,3.03c-1.65.72-3.16,2.63-3.36,4.15-.2,1.51-1.51,3.69-2.9,4.87l-8.56,6.72c-1.45,1.12-2.77,3.49-2.9,5.33l-.33,3.36c-.2,1.78,1.12,3.62,2.9,4.08l5.4,1.38c1.78.46,1.78,1.25,0,1.78l-5.14,1.51c-1.71.53-2.77,2.37-2.24,4.08l1.32,4.67c.53,1.71.4,4.54-.26,6.25l-1.78,4.61c-.66,1.71.07,3.82,1.58,4.81l1.78,1.12c1.51.92,1.78,2.77.53,4.08l-.99.99c-1.25,1.32-1.32,3.42-.07,4.81l5.27,5.73c1.25,1.32,3.69,2.44,5.53,2.44h6.39c1.84,0,4.08-1.25,5-2.83l5.14-8.43c.92-1.58,3.23-2.7,5-2.63h.13c1.84.07,3.49-1.32,3.69-3.09l.66-5.66c.2-1.78,1.12-1.98,1.98-.33l2.11,3.95c.86,1.58,2.7,2.57,4.15,2.11,1.45-.46,2.57-2.3,2.57-4.08v-5.66c0-1.84,1.19-4.21,2.57-5.33l.2-.2c1.45-1.12,2.57-3.49,2.57-5.33v-1.25c0-1.84-.66-4.48-1.51-5.99-.86-1.51-.4-3.03.92-3.49,1.32-.46,2.5-2.17,2.5-3.75s-1.19-3.88-2.57-5l-.46-.4c-1.45-1.12-2.3-3.49-1.98-5.27l.46-2.7c.33-1.78.13-4.67-.33-6.39l-1.38-4.74c-.53-1.71-.59-4.61-.13-6.32l2.11-7.97c.46-1.78,2.24-3.62,3.95-4.21l4.08-1.32c1.71-.53,2.57-2.37,1.91-4.02l-.59-1.45c-.66-1.65-.66-4.41.13-6.06l2.24-4.81c.72-1.65,1.25-4.48,1.05-6.25l-.59-7.11c-.13-1.78.72-3.29,1.98-3.29s2.24-1.25,2.24-2.7.79-3.95,1.71-5.53l3.09-5c.99-1.51,1.71-4.28,1.71-6.06v-7.04c0-1.84,1.38-3.09,3.09-2.9s3.09-1.12,3.09-2.9v-2.7c0-1.84,1.45-3.23,3.29-3.09l3.95.26c1.84.13,3.82-1.19,4.48-2.9l3.56-9.41c.66-1.71,2.17-1.98,3.36-.59l3.09,3.42c1.19,1.38,3.49,1.71,5,.79l.66-.4c1.58-.92,4.28-1.38,6.06-1.05l.72.13c1.78.33,3.29-.86,3.36-2.63l.59-12.38c.07-1.84,1.32-4.21,2.7-5.33l2.57-1.98c1.45-1.12,3.88-1.25,5.4-.33l5.33,3.23h-.13Z"/>
      <g>
        <path class="cls-1" d="M78.92,324.38c1.25-1.25,3.75-1.91,5.53-1.45l2.3.66c1.71.46,3.42,2.3,3.69,4.08l1.19,7.18c.26,1.78-.53,3.69-1.84,4.21s-3.42,0-4.81-1.25l-2.24-2.04c-1.32-1.25-3.29-1.45-4.28-.53s-2.77.53-3.95-.86l-.46-.53c-1.12-1.38-.99-3.62.26-4.87l4.61-4.61h0Z"/>
        <path class="cls-1" d="M106.83,279.42c.92-1.58,3.09-2.57,4.87-2.17l9.61,1.91c1.78.33,2.24,1.71.99,3.09l-8.23,9.09c-1.25,1.32-.72,2.57,1.05,2.77l13.89,1.32c1.78.2,2.5,1.58,1.58,3.16l-5.86,9.68c-.92,1.58-2.11,3.88-2.63,5.14-.53,1.25-2.37,2.63-4.15,3.03l-4.41.92c-1.78.4-1.78.99,0,1.32l6.65,1.32c1.78.33,4.08,1.84,5.2,3.29l1.45,1.98c1.05,1.45,2.04,4.15,2.11,5.93l.33,8.03c.07,1.84,1.12,4.41,2.3,5.73l4.08,4.54c1.19,1.32,2.44,3.95,2.7,5.73l1.05,6.45c.26,1.78-.13,4.61-.92,6.19l-1.25,2.63c-.79,1.65,0,2.44,1.65,1.78l2.17-.86c1.71-.66,4.35-.39,5.86.59l1.71,1.12c1.51.99,2.37,3.23,1.98,5l-1.45,5.73c-.46,1.78-2.11,3.82-3.75,4.67l-5.86,2.96c-1.65.79-1.51,1.91.2,2.5l3.29,1.05c1.71.53,2.11,2.11.86,3.42l-1.38,1.45c-1.25,1.32-3.75,2.24-5.53,1.98l-15.01-1.71c-1.78-.2-4.74,0-6.45.39l-4.41,1.05c-1.78.39-4.61.33-6.39-.13l-2.5-.72c-1.71-.53-4.02.33-5,1.78l-.72,1.05c-1.05,1.51-3.16,1.98-4.67,1.05l-2.37-1.38c-1.58-.92-4.15-.99-5.79-.2l-3.56,1.78c-1.65.79-3.49.53-4.21-.53-.72-1.05,0-2.77,1.51-3.75l13.3-8.3c1.51-.99,4.28-1.51,6.06-1.25l3.42.53c1.78.26,4.35-.53,5.73-1.71l.99-.92c1.32-1.19.99-2.24-.86-2.24l-5.53-.13c-1.84,0-4.48-.92-5.93-2.04l-6.98-5.14c-1.45-1.05-1.25-2.44.46-3.03l6.06-2.11c1.71-.59,3.49-2.5,3.88-4.28l.26-1.12c.46-1.78-.33-4.02-1.71-5-1.38-.99-1.12-2.37.59-3.03l2.57-.99c1.71-.66,4.54-.99,6.32-.72l.92.13c1.78.26,3.62-.99,4.02-2.77l1.19-5.07c.4-1.78-.13-4.41-1.25-5.79l-2.04-2.7c-1.12-1.45-.79-3.56.59-4.67l1.91-1.45c1.45-1.12,1.12-1.98-.72-1.91l-10.27.26c-1.84,0-2.77-1.32-2.04-2.96l1.91-4.74c.66-1.65.59-4.41-.2-5.99l-3.29-6.91c-.79-1.65-.66-4.15.26-5.66.92-1.51.33-3.29-1.32-3.95l-.53-.26c-1.65-.72-2.04-2.24-.92-3.42,1.12-1.19,1.51-3.49.79-5.14l-1.58-3.69c-.72-1.65-.13-2.11,1.32-1.05l1.05.79c1.45,1.05,3.36.66,4.28-.92l6.72-11.59h0v-.2h0Z"/>
        <path class="cls-1" d="M96.5,277.97c.99-1.51.53-2.04-1.12-1.19l-3.23,1.71c-1.58.86-3.29,2.96-3.82,4.74l-2.9,9.88c-.53,1.71-.13,1.91.86.4l10.14-15.54h.07Z"/>
      </g>
      <path class="cls-1" d="M30.2,138.92c-.13,1.78-1.71,3.03-3.49,2.77l-10.53-1.78c-1.78-.26-2.11.4-.72,1.58l8.1,6.78c1.38,1.19,1.32,2.96-.2,3.95l-5.99,4.02c-1.51.99-1.38,2.5.2,3.29l6.32,3.23c1.65.79,3.88,2.63,5,4.02l6.45,7.97c1.12,1.38,3.49,2.04,5.2,1.45l3.75-1.38c1.71-.59,4.54-1.19,6.39-1.25l12.25-.46c1.84-.07,4.54-.92,6.06-1.91l7.97-5.07c1.51-.99,2.3-3.16,1.71-4.87l-1.45-4.08c-.59-1.71-.72-4.54-.33-6.32l.79-3.29c.4-1.78-.46-4.08-1.91-5.14l-3.75-2.77c-1.45-1.05-4.02-1.38-5.66-.66l-2.3.99c-1.65.72-4.35.66-5.99-.13l-9.68-4.67c-1.65-.79-4.08-.46-5.4.79l-2.44,2.24c-1.32,1.19-2.5.72-2.57-1.05l-.46-11.59c0-1.84-1.19-2.24-2.5-.99l-1.65,1.58c-1.32,1.25-3.29,1.51-4.48.53s-3.42-1.05-5-.13l-2.5,1.45c-1.58.92-1.45,2.11.26,2.7l5.93,1.91c1.71.59,3.03,2.5,2.83,4.28l-.2,2.11h0v-.07Z"/>
      <path class="cls-1" d="M321.78,529.06c1.38,1.12,2.3.59,1.91-1.19l-.26-1.19c-.33-1.78-.33-4.48.07-6.06s1.45-2.83,2.37-2.9,1.51-.79,1.38-1.71.86-1.84,2.17-2.11c1.32-.26,1.45-1.51.2-2.83l-.13-.13c-1.19-1.32-.99-2.83.46-3.36,1.45-.53,1.38-1.71-.07-2.77l-1.25-.79c-1.51-.99-2.24-3.23-1.58-4.94l.66-1.84c.66-1.71.2-3.36-.92-3.62-1.12-.26-2.24,0-2.5.46s-1.19.33-2.17-.59-3.29-1.38-5.07-1.12l-1.84.26c-1.78.26-4.67.13-6.45-.2l-3.09-.66c-1.78-.39-4.28-.46-5.6-.2s-2.77,1.19-3.29,2.04c-.53.86-2.17.79-3.75-.2h-.13c-1.51-1.05-2.96-.33-3.09,1.45v.46c-.2,1.78.26,3.62,1.05,4.02s1.91,2.11,2.5,3.82l.4,1.12c.59,1.71,2.3,4.02,3.69,5.14l24.29,19.49h0v.13h.07Z"/>
      <path class="cls-1" d="M327.31,516.03c-.13-.92.99-.92,2.57,0l6.39,3.82c1.58.92,3.62,1.98,4.61,2.3.99.33,1.25,1.38.59,2.3s-1.19,2.3-1.19,3.03-.99,1.25-2.3,1.25-3.03,1.19-3.88,2.77c-.86,1.58-1.25,4.28-.86,5.93.4,1.65-.4,2.04-1.71.79l-4.87-4.81c-1.32-1.25-2.63-3.75-2.96-5.53l-.26-1.19c-.33-1.78-.33-4.48.07-6.06.4-1.58,1.45-2.83,2.37-2.9s1.51-.79,1.38-1.71h.07Z"/>
      <path class="cls-1" d="M337.98,528.74c1.32,0,3.42,1.12,4.74,2.3l1.51,1.38c1.32,1.25,2.44,3.75,2.44,5.53v2.24c0,1.84.53,4.67,1.05,6.45l.39,1.12c.53,1.71,1.98,3.62,3.16,4.15s2.17,2.3,2.3,3.82-.26,4.15-.79,5.79c-.53,1.65-1.91,3.62-3.09,4.41-1.19.79-2.11,2.44-2.11,3.82s-.72,2.63-1.51,2.9-1.84-.79-2.24-2.37-1.91-3.69-3.36-4.74l-2.44-1.84c-1.45-1.05-2.57-3.42-2.44-5.27l.46-6.39c.13-1.78-.13-4.74-.66-6.45l-.72-2.5c-.46-1.78-1.19-4.41-1.51-5.99-.33-1.58.07-4.08.92-5.66.86-1.58,2.57-2.83,3.82-2.77h.07v.07Z"/>
      <path class="cls-1" d="M346.74,537.95c0-1.84,1.19-3.88,2.77-4.61,1.58-.72,3.49-.92,4.28-.46.79.46,1.78,0,2.17-.79s2.11-2.04,3.88-2.5l2.63-.79c1.71-.53,3.95-.26,4.87.53s2.3,1.45,3.09,1.45,1.98.99,2.7,2.3,1.32,3.56,1.25,5.2c-.07,1.65-.92,3.95-1.91,5.2-.99,1.25-3.29,2.37-5.14,2.5h-.33c-1.84.13-3.62,1.12-4.08,2.24-.46,1.12-2.17,2.5-3.88,3.03l-2.63.79c-1.71.53-4.08.53-5.27,0s-2.57-2.44-3.16-4.15l-.39-1.12c-.53-1.71-1.05-4.61-1.05-6.45v-2.24h0l.2-.13h0Z"/>
      <path class="cls-1" d="M341.47,524.52c.66-.92,1.98-2.17,2.9-2.7s1.91-1.98,2.24-3.23c.33-1.25,1.78-1.32,3.16-.2l2.9,2.37c1.38,1.12,3.36,2.11,4.35,2.17s1.65,1.58,1.45,3.36v.86c-.26,1.78-.79,3.29-1.32,3.36s-1.12.79-1.45,1.65-1.19,1.19-1.98.79-2.7-.2-4.28.46-3.88.26-5.2-.99l-1.12-1.05c-1.32-1.25-2.5-2.9-2.7-3.69s.26-2.17.92-3.16h.13,0Z"/>
      <path class="cls-1" d="M357.01,522.88c.99,0,1.65,1.58,1.45,3.36v.86c-.26,1.78.99,2.83,2.7,2.24l1.32-.46c1.71-.53,3.49-1.65,4.02-2.5.53-.86.33-2.5-.26-3.75-.59-1.25-.59-2.57,0-2.96s1.84-1.98,2.7-3.62l.13-.2c.86-1.58.26-3.69-1.32-4.61l-.39-.2c-1.58-.92-3.29-3.09-3.75-4.81l-.33-1.12c-.53-1.71-.46-3.49.13-3.82s1.05-1.38,1.05-2.17-.33-1.78-.79-2.04-1.05-1.05-1.38-1.71,0-1.45.79-1.84.13-1.45-1.51-2.3l-.26-.13c-1.58-.86-3.03-.33-3.16,1.25-.13,1.58-.92,2.37-1.71,1.78s-2.9-1.38-4.67-1.78h-.13c-1.78-.39-2.63-1.25-1.98-1.91s.99-1.91.79-2.9-1.84-2.17-3.56-2.77l-2.17-.72c-1.71-.59-3.23-2.11-3.42-3.36-.2-1.25-1.45-3.29-2.77-4.48l-.79-.66c-1.38-1.19-3.95-2.24-5.73-2.44s-4.41.53-5.93,1.58l-2.63,1.91c-1.45,1.05-2.17,3.29-1.58,5l.13.33c.59,1.71,2.3,3.75,3.75,4.54s1.98,2.57,1.12,3.95c-.86,1.38-.72,2.77.26,3.09s1.32,1.98.66,3.69l-.66,1.84c-.66,1.71.07,3.88,1.58,4.94l1.25.79c1.51.99,1.58,2.24.07,2.77-1.51.53-1.65,2.04-.46,3.36l.13.13c1.19,1.32,1.12,2.63-.2,2.83-1.32.2-1.19,1.19.4,2.11l6.39,3.82c1.58.92,3.62,1.98,4.61,2.3.99.33,2.57.13,3.49-.39.92-.53,1.91-1.98,2.24-3.23.33-1.25,1.78-1.32,3.16-.2l2.9,2.37c1.38,1.12,3.36,2.11,4.35,2.17h0v.07Z"/>
      <path class="cls-1" d="M376.36,309.11c.13-1.38,1.65-2.04,3.36-1.45l1.65.59c1.71.59,4.28.72,5.79.26,1.51-.46,3.16.13,3.82,1.19s2.3,1.05,3.75,0l.86-.66c1.45-1.12,3.95-1.45,5.6-.66l.66.26c1.65.72,3.23,2.83,3.49,4.61l.72,5.07c.26,1.78,1.71,4.08,3.23,5.07l6.78,4.35c1.51.99,2.9,2.83,3.09,4.15s1.78,2.04,3.56,1.65h0c1.78-.4,4.08.4,5.14,1.71,1.05,1.32,1.12,3.69.13,5.2l-.39.59c-.99,1.51-3.29,2.7-5.07,2.63h-.39c-1.84,0-2.63,1.19-1.78,2.77l4.87,9.28c.86,1.58.13,3.42-1.51,4.08l-1.12.39c-1.71.66-3.16,2.63-3.29,4.48l-.46,6.78c-.13,1.78-1.71,3.49-3.49,3.82l-4.41.72c-1.78.26-4.08-.2-5.14-1.05-1.05-.86-2.37-.79-2.96.13s-2.57,1.98-4.35,2.24l-6.78,1.12c-1.78.26-3.88-.26-4.61-1.25-.72-.99-2.83-1.65-4.67-1.45l-12.31,1.25c-1.78.2-4.67.86-6.39,1.51l-.26.13c-1.71.66-3.75,2.5-4.61,4.08l-.59,1.12c-.86,1.58-2.11,2.11-2.83,1.19s-1.19-3.23-1.05-5.07v-1.05c.2-1.78-1.05-3.75-2.7-4.28-1.65-.53-2.11-2.11-.92-3.49l2.5-2.96c1.19-1.38,1.51-3.88.79-5.53l-5.07-11.52c-.72-1.65,0-3.49,1.45-4.08,1.45-.59,3.23-.66,3.82-.2s1.38.26,1.71-.53,1.91-2.04,3.56-2.83l3.95-1.91c1.65-.79,2.63-2.9,2.24-4.61l-.79-3.36c-.39-1.78,0-4.48.86-6.06l.13-.2c.86-1.58,2.5-3.62,3.62-4.48s1.12-1.78,0-1.91-1.78-1.38-1.58-2.63,1.05-3.36,1.91-4.54,2.63-2.17,3.88-2.11c1.25.07,2.37-.99,2.5-2.37h0v-.2h.13Z"/>
      <path class="cls-1" d="M396.77,429.39c-1.19-1.38-.79-3.09.92-3.82l1.84-.79c1.65-.72,4.41-.72,6.06,0s4.48,1.19,6.25,1.05h.79c1.78-.2,4.35,0,5.66.53,1.32.53,2.57,2.24,2.9,3.95.33,1.71,1.78,3.69,3.29,4.28s2.96,2.24,3.23,3.56,1.58,2.77,2.96,3.16c1.38.39,2.7,2.17,3.03,3.95h0c.33,1.78-.92,3.23-2.77,3.23h-3.23c-1.84,0-2.83,1.45-2.3,3.16l.33,1.12c.53,1.71,0,4.21-1.05,5.53-1.05,1.32-1.51,3.82-.92,5.46l.53,1.51c.59,1.71-.26,2.44-1.91,1.65l-1.32-.66c-1.65-.79-3.42-2.9-4.02-4.61l-.59-1.71c-.59-1.71-1.05-4.61-1.05-6.39v-2.83c0-1.84-1.12-4.28-2.44-5.53l-9.09-8.23c-1.32-1.19-3.42-3.36-4.54-4.74l-2.5-2.96h0v.13h-.07Z"/>
      <path class="cls-1" d="M423.63,359.74c1.71-.66,4.08-2.3,5.27-3.62l.46-.46c1.19-1.32,3.62-2.96,5.33-3.56l6.19-2.17c1.71-.59,4.21-.13,5.6,1.05l3.03,2.57c1.38,1.19,2.5,3.62,2.5,5.4v1.71c0,1.84,1.45,2.96,3.23,2.5l3.62-.86c1.78-.39,4.08.46,5.2,1.84l3.36,4.48c1.12,1.45,3.42,2.5,5.27,2.3l2.96-.26c1.78-.2,4.41-1.25,5.79-2.44l2.11-1.78c1.38-1.19,3.75-1.32,5.27-.33l1.91,1.25c1.51.99,3.36,1.19,4.15.46.79-.72,2.83-1.12,4.61-.92h.53c1.78.33,4.67.13,6.45-.26h.2c1.78-.46,4.41-.79,5.93-.72,1.51.07,3.29,1.19,3.95,2.5s.59,3.56-.2,4.94-.92,3.75-.33,5.33c.59,1.58,2.24,3.69,3.62,4.74s2.57,3.42,2.57,5.2v.26c0,1.84-1.38,3.88-3.03,4.61l-2.44,1.05c-1.65.72-3.62,2.63-4.35,4.35l-.13.33c-.72,1.65-1.05,4.48-.79,6.25h0c.33,1.84-.59,4.28-1.91,5.53l-6.45,5.86c-1.32,1.19-3.75,2.96-5.27,3.88l-2.9,1.71c-1.58.92-3.69,2.9-4.74,4.35l-5.53,7.77c-1.05,1.45-3.42,2.7-5.2,2.7h-1.65c-1.84,0-3.03.86-2.77,1.84s1.98,1.65,3.75,1.38l2.96-.46c1.78-.26,4.48.39,5.93,1.45l3.36,2.37c1.45,1.05,3.95,1.19,5.53.2l6.45-3.82c1.58-.92,2.83-.2,2.83,1.65h0c0,1.84-1.38,3.95-3.03,4.61l-3.88,1.65c-1.65.72-3.62,2.37-4.35,3.75-.72,1.38-2.3,2.9-3.56,3.42-1.25.53-2.9,2.3-3.69,3.95l-1.19,2.5c-.79,1.65-2.9,2.77-4.67,2.44l-.59-.13c-1.78-.33-3.03-1.98-2.77-3.69.26-1.71-.72-3.82-2.11-4.61s-4.02-1.45-5.86-1.45h-2.57c-1.84,0-2.3-1.12-1.19-2.5l4.54-5.33c1.19-1.38,1.78-3.36,1.38-4.35s-1.65-1.58-2.77-1.32-3.36,1.12-5,1.84l-1.65.72c-1.65.72-4.28.66-5.93-.2l-.59-.33c-1.58-.86-1.71-2.44-.33-3.56l1.45-1.12c1.45-1.12,1.12-1.84-.66-1.65h-.53c-1.78.26-4.48.26-5.93,0-1.45-.26-2.9.46-3.16,1.65-.26,1.19-1.71,2.9-3.09,3.88s-2.83,3.29-3.23,5.07l-.99,4.67c-.39,1.78-1.45,4.48-2.37,6.06l-1.84,3.09c-.92,1.58-2.57,2.7-3.69,2.5-1.12-.2-3.03.72-4.28,2.04l-.33.33c-1.25,1.32-2.77.99-3.29-.72l-.53-1.51c-.59-1.71-.13-4.21.92-5.46,1.05-1.25,1.58-3.82,1.05-5.53l-.33-1.12c-.53-1.71.53-3.16,2.3-3.16h3.23c1.84,0,3.03-1.45,2.77-3.23h0c-.33-1.78-1.65-3.56-3.03-3.95-1.38-.39-2.7-1.84-2.96-3.16-.26-1.32-1.71-2.9-3.23-3.56-1.51-.66-3.03-2.57-3.29-4.28s-1.58-3.49-2.9-3.95-3.82-.72-5.66-.59h-.79c-1.78.2-4.61-.33-6.25-.99-1.65-.66-4.35-.66-6.06,0l-1.84.79c-1.65.72-3.95,2.44-5.07,3.82l-.99,1.25c-1.12,1.38-3.49,3.03-5.2,3.56l-2.17.72c-1.71.53-3.75,2.11-4.54,3.49s-2.3,1.58-3.42.46c-1.12-1.12-2.96-1.58-4.08-.99s-3.49.86-5.33.66l-3.95-.53c-1.78-.26-3.75.2-4.35,1.05-.59.86-1.98.59-3.09-.46-1.12-1.05-2.96-2.24-4.02-2.63s-1.71-1.84-1.38-3.29,1.51-3.75,2.57-5.27l.26-.33c1.05-1.45,1.45-4.02.79-5.73l-.72-1.91c-.66-1.71-.53-4.41.26-6.06l4.21-8.82c.79-1.65,2.44-3.36,3.62-3.88,1.19-.53,1.84-2.37,1.38-4.08l-.13-.53c-.46-1.78-1.65-4.41-2.77-5.79l-.79-.99c-1.12-1.45-1.32-3.95-.46-5.53l.59-1.12c.86-1.58,2.9-3.42,4.61-4.08l.26-.13c1.71-.66,4.54-1.32,6.39-1.51l12.31-1.25c1.78-.2,3.88.46,4.67,1.45.79.99,2.83,1.58,4.61,1.25l6.78-1.12c1.78-.26,3.75-1.32,4.35-2.24s1.91-.99,2.96-.13,3.36,1.38,5.14,1.05l4.41-.72c1.78-.26,3.36-1.98,3.49-3.82l.46-6.78c.13-1.78,1.65-3.82,3.29-4.48l1.12-.39h0v.13h0Z"/>
      <g>
        <path class="cls-1" d="M332.58,97.45c.86-1.58,2.96-2.57,4.67-2.17l5.07,1.25c1.78.4,4.15,1.91,5.4,3.23l1.71,1.91c1.19,1.38,3.56,1.91,5.2,1.25l5.99-2.37c1.65-.66,4.41-.66,6.12,0l13.17,5.2c1.71.66,4.54,1.45,6.32,1.71l12.31,2.04c1.78.26,3.95,1.84,4.81,3.42l2.83,5.33c.86,1.58.99,4.28.26,5.93l-5.4,12.44c-.72,1.65-2.77,2.96-4.61,2.9l-36.47-1.71c-1.84-.07-2.04.59-.53,1.58l15.54,9.68c1.51.92,3.36,3.09,4.02,4.81l5.53,13.63c.66,1.71,2.7,3.16,4.48,3.36l15.34,1.38c1.78.13,3.29-.59,3.29-1.65s-1.25-2.77-2.7-3.82l-8.43-5.73c-1.51-1.05-2.24-3.23-1.71-4.94.53-1.71,2.5-2.96,4.28-2.77l17.12,1.65c1.78.2,2.24-.72.99-2.04l-7.31-7.64c-1.25-1.32-1.58-3.69-.72-5.27l8.76-16.33c.86-1.58,2.9-2.3,4.54-1.58l4.87,2.17c1.65.72,2.11.13,1.05-1.32l-9.88-13.04c-1.12-1.45-2.37-4.08-2.83-5.79l-1.32-4.87c-.46-1.78-2.11-4.02-3.62-5l-4.41-2.96c-1.51-.99-1.32-2.17.46-2.63l8.43-2.04c1.78-.46,4.48,0,5.99.92l3.75,2.3c1.51.92,2.11,3.03,1.25,4.61l-3.03,5.6c-.86,1.58-.13,3.36,1.58,3.95l6.85,2.3c1.71.59,3.95-.2,4.87-1.71h0c.99-1.58,1.38-4.28.92-5.99l-1.91-7.11c-.46-1.71-.26-4.54.46-6.19l13.36-30.09c.72-1.65,1.65-1.58,2.11.2l1.65,6.85c.39,1.78,1.91,2.24,3.29,1.12l.66-.53c1.38-1.19,2.7-3.56,2.9-5.4l.33-3.16c.2-1.78,1.65-4.02,3.23-4.87l.86-.53c1.58-.86,3.23-3.09,3.62-4.81l1.05-4.35c.39-1.78,1.98-2.37,3.49-1.32l2.96,2.04c1.51,1.05,2.63.4,2.57-1.38l-.2-5.86c0-1.84-1.51-3.62-3.29-4.08l-18.04-4.48c-1.78-.46-3.16-1.91-3.03-3.23.13-1.32,1.65-2.5,3.42-2.5l8.3-.13c1.84,0,4.54-.86,6.06-1.84l5.27-3.49c1.51-.99,4.21-2.17,5.93-2.57l14.68-3.56c1.78-.4,4.67-.99,6.45-1.19l2.04-.26c1.78-.2,3.49-1.38,3.75-2.57s1.91-2.17,3.75-2.17h184.21c1.84,0,3.29,1.51,3.29,3.29v116.33c0,1.84-.86,4.48-1.98,5.93l-2.24,3.03c-1.05,1.45-3.09,1.71-4.54.59l-9.28-7.31c-1.45-1.12-3.03-.59-3.56,1.12l-.53,1.78c-.53,1.71-2.3,3.69-4.02,4.41l-3.49,1.45c-1.65.72-2.96,2.77-2.96,4.54l.2,5.4c0,1.84-.53,4.67-1.25,6.32l-17.97,39.9c-.72,1.65-2.5,3.88-4.02,4.94l-3.62,2.7c-1.45,1.05-1.78,3.16-.66,4.61l3.23,4.28c1.05,1.45,3.36,2.17,5.07,1.58l3.82-1.25c1.71-.59,2.44.26,1.65,1.91l-3.36,6.65c-.79,1.65-.26,3.75,1.25,4.74l.72.46c1.51.99,2.3,3.23,1.84,4.94l-1.05,3.42c-.53,1.71.53,2.96,2.3,2.7l10.73-1.45c1.78-.26,3.95.86,4.74,2.5l1.45,2.9c.79,1.65.53,4.08-.59,5.53l-7.11,8.82c-1.12,1.38-3.56,2.63-5.33,2.63l-8.49.26c-1.84,0-4.28,1.19-5.53,2.5l-7.7,8.3c-1.25,1.32-2.3,3.88-2.44,5.66l-.26,4.08c-.13,1.78-1.65,3.09-3.49,2.77l-4.67-.72c-1.78-.26-4.74-.26-6.52.07l-19.55,3.29c-1.78.33-4.35,1.58-5.66,2.77l-5.14,4.81c-1.32,1.25-2.83,3.69-3.36,5.4l-5.93,19.22c-.53,1.71-.26,4.41.66,5.99l2.3,4.02c.86,1.58.13,2.7-1.65,2.44l-7.64-.99c-1.78-.26-3.09,1.05-2.96,2.9l1.25,12.71c.2,1.78.86,4.67,1.51,6.32l2.96,7.37c.66,1.65,2.57,3.69,4.21,4.48l7.44,3.56c1.65.79,3.95.33,5.2-.99l.86-.92c1.19-1.32,3.49-1.78,5.14-.92l8.62,4.54c1.58.86,2.17,2.7,1.25,4.08s-.2,2.63,1.65,2.7h1.19c1.84.13,2.83,1.65,2.24,3.36l-3.75,11.59c-.53,1.71-1.19,4.61-1.45,6.39l-1.91,14.62c-.26,1.78.92,3.82,2.63,4.48l6.12,2.5c1.65.66,3.88,2.44,4.94,3.95l6.39,8.95c1.05,1.45,3.29,3.29,4.94,4.02l8.69,3.95c1.65.72,2.63,2.83,2.17,4.54l-1.71,6.65c-.46,1.78-2.17,3.56-3.82,3.95-1.65.39-4.41.39-6.19-.13l-6.19-1.78c-1.78-.46-4.61-.66-6.45-.39l-2.24.33c-1.78.26-3.62-.72-4.08-2.24-.46-1.51-2.24-2.24-3.95-1.71l-8.95,2.77c-1.71.53-3.88,1.91-4.87,3.03-.99,1.12-3.16,1.71-4.94,1.32l-7.24-1.58c-1.78-.39-4.61-.13-6.25.53l-7.31,2.96c-1.65.66-4.54,1.25-6.32,1.25h-9.48c-1.84,0-3.49,1.05-3.75,2.37s-1.84,1.78-3.49.99l-10.14-4.67c-1.65-.79-4.48-1.45-6.25-1.51l-10.2-.39c-1.84,0-4.54-.92-6.06-1.84l-1.71-1.05c-1.51-.92-1.71-2.7-.33-3.95l1.32-1.19c1.32-1.19,2.37-3.69,2.24-5.46l-.26-4.54c-.13-1.78.66-3.82,1.71-4.48,1.05-.66.66-1.98-.86-2.96l-3.82-2.44c-1.51-.99-1.65-2.77-.33-3.95l7.64-6.72c1.38-1.19,1.05-1.78-.72-1.25l-4.35,1.25c-1.71.53-3.42-.53-3.69-2.37h0c-.33-1.84,0-4.67.79-6.32l.13-.33c.72-1.65,2.63-3.62,4.35-4.35l2.44-1.05c1.65-.72,3.03-2.77,3.03-4.61v-.26c0-1.84-1.19-4.15-2.57-5.2-1.38-1.05-3.03-3.23-3.62-4.74s-.46-3.95.33-5.33.86-3.56.2-4.94-2.44-2.5-3.95-2.5-4.15.2-5.93.66h-.2c-1.78.46-4.67.66-6.45.39h-.53c-1.78-.33-3.88.13-4.61.86s-2.63.53-4.15-.46l-1.91-1.25c-1.51-.99-3.88-.86-5.27.33l-2.11,1.78c-1.38,1.19-4.02,2.24-5.79,2.44l-2.96.26c-1.78.2-4.15-.86-5.27-2.3l-3.36-4.48c-1.12-1.45-3.42-2.3-5.2-1.84l-3.62.86c-1.78.39-3.23-.72-3.23-2.5v-1.71c0-1.84-1.12-4.28-2.5-5.4l-3.03-2.57c-1.38-1.19-3.88-1.65-5.6-1.05l-6.19,2.17c-1.71.59-4.08,2.17-5.33,3.56l-.46.46c-1.19,1.32-2.9,1.12-3.75-.46l-4.87-9.28c-.86-1.58,0-2.83,1.78-2.77h.33c1.84,0,4.08-1.12,5-2.63l.39-.59c.92-1.51.86-3.88-.13-5.2-.99-1.32-3.29-2.04-5.07-1.65h0c-1.78.4-3.36-.33-3.56-1.65-.2-1.32-1.58-3.16-3.09-4.15l-6.78-4.35c-1.51-.99-2.96-3.23-3.23-5.07l-.72-5.07c-.26-1.78-1.84-3.88-3.49-4.61l-.66-.26c-1.65-.72-4.15-.46-5.6.66l-.86.66c-1.45,1.12-3.09,1.12-3.75,0-.66-1.12-2.3-1.65-3.82-1.19-1.51.46-4.02.33-5.79-.26l-1.65-.59c-1.71-.59-2.44-1.78-1.65-2.7s.72-2.9-.26-4.41l-1.78-2.83c-.99-1.51-2.37-2.7-3.09-2.63s-1.12-1.32-.79-3.03l.13-.59c.33-1.78-.53-3.88-1.91-4.61-1.38-.72-2.04-2.7-1.45-4.35s0-4.08-1.12-5.46l-.66-.72c-1.19-1.38-2.5-3.88-2.96-5.66l-.53-2.3c-.39-1.78-.33-4.61.26-6.32l1.12-3.49c.53-1.71,2.24-3.95,3.69-5l6.32-4.41c1.45-1.05,1.25-2.24-.53-2.7l-14.48-3.62c-1.78-.46-2.5-2.11-1.71-3.75l8.82-17.38c.79-1.65,1.78-4.41,2.11-6.19l3.29-16.79c.33-1.78-.59-4.02-2.11-5l-7.37-4.74c-1.51-.99-2.57-3.23-2.37-5.07l.33-2.37c.2-1.78-.86-3.42-2.44-3.69-1.58-.26-2.9-1.71-2.9-3.29s-.99-3.95-2.17-5.33l-.99-1.05c-1.19-1.38-2.17-3.95-2.17-5.79v-1.45c0-1.84-.86-4.48-1.98-5.93l-7.37-9.94c-1.05-1.45-1.78-4.08-1.51-5.93l1.12-7.83c.26-1.78-.79-4.02-2.37-4.94l-4.54-2.7c-1.58-.92-3.36-3.03-3.95-4.74l-1.84-5c-.66-1.71-.59-4.48.07-6.19l.72-1.91c.66-1.71,1.91-4.35,2.7-5.99l1.25-2.37h0l.26.2h0Z"/>
        <path class="cls-1" d="M410.53,1c-1.84,0-3.82,1.38-4.54,3.03l-.26.66c-.66,1.71-.66,4.41,0,6.06l7.7,17.91c.72,1.65,2.77,3.03,4.61,3.09l11.98.2c1.84,0,4.48-.86,5.86-1.98l8.36-6.65c1.45-1.12,1.12-2.44-.59-2.96l-15.87-4.41c-1.78-.46-3.88-2.17-4.81-3.75l-4.81-8.3c-.92-1.58-3.16-2.83-4.94-2.83h-2.7v-.07Z"/>
        <path class="cls-1" d="M429.56,63.74c-.92-1.51-2.7-1.71-3.95-.33l-1.98,2.17c-1.19,1.38-1.19,3.49,0,4.81l1.78,1.84c1.25,1.32,3.09,1.12,4.02-.46l.79-1.25c.92-1.51.92-4.08,0-5.6l-.79-1.25h.07l.07.07Z"/>
      </g>
      <g>
        <path class="cls-1" d="M426.4,520.31c1.25-.79,2.9-.13,3.75,1.45l.46.92c.79,1.65,2.9,3.36,4.61,3.82l4.41,1.19c1.78.46,3.16,2.11,3.16,3.56s-1.45,2.83-3.29,3.09l-7.77.86c-1.78.2-4.21,1.51-5.4,2.9l-7.44,8.82c-1.19,1.38-3.03,1.32-4.15,0l-1.25-1.65c-1.12-1.45-1.45-3.42-.79-4.41s.99-2.63.72-3.69.39-2.7,1.45-3.75c1.05-1.05.72-2.77-.79-3.75h0c-1.51-1.05-2.17-2.96-1.58-4.35s1.78-2.44,2.63-2.44,1.98-.66,2.63-1.51c.66-.86,2.3-1.12,3.75-.59,1.45.53,3.69.26,4.94-.53h0v.13l-.07-.07Z"/>
        <path class="cls-1" d="M449.97,526.89c-1.78.46-3.29,2.3-3.49,4.08v.33c-.2,1.78,1.12,3.16,2.96,3.03l2.5-.2c1.78-.13,2.17.72.79,1.84l-5,4.21c-1.38,1.19-3.95,2.44-5.73,2.77l-15.87,3.23c-1.78.33-4.02,1.91-5,3.42l-3.23,5.07c-.99,1.51-1.58,4.21-1.38,5.99.2,1.78,1.71,2.5,3.29,1.71l3.29-1.71c1.65-.79,2.9,0,2.9,1.78v3.82c0,1.84.46,4.67,1.19,6.32l.2.46c.72,1.65-.2,2.7-1.98,2.3l-1.12-.26c-1.78-.39-2.83.66-2.37,2.44l.39,1.58c.46,1.78,2.3,3.09,4.08,2.96l5.6-.33c1.84-.13,2.83,1.19,2.24,2.96l-.39,1.12c-.59,1.71.39,3.56,2.11,4.08l.99.33c1.71.53,2.44,1.98,1.58,3.16-.86,1.19-.13,1.98,1.65,1.58l5.4-1.05c1.78-.33,3.23.59,3.23,2.11s.92,1.84,2.11.86,3.23-1.19,4.61-.33c1.38.86,3.16.92,4.02.2s2.7-.33,4.15.72l2.57,1.98c1.45,1.12,3.95,1.38,5.6.59l4.28-2.04c1.65-.79,2.63-2.83,2.3-4.61l-.72-3.29c-.39-1.78.79-3.23,2.57-3.23h12.97c1.84,0,4.54.79,6.12,1.71l3.03,1.84c1.58.92,4.15.99,5.73.13l9.48-5c1.58-.86,3.42-2.9,4.15-4.61l2.57-6.32c.66-1.65,2.63-2.63,4.41-2.11l2.63.79c1.71.53,3.95-.33,4.87-1.84l2.5-4.02c.99-1.51,2.5-2.11,3.42-1.25s1.19,2.96.66,4.67l-.79,2.44c-.59,1.71,0,4.15,1.32,5.4l1.12,1.05c1.32,1.25,3.03.99,3.88-.59l1.98-3.69c.86-1.58.99-4.28.39-5.99l-.92-2.37c-.66-1.71.26-2.96,2.11-2.77,1.84.2,4.41-.66,5.79-1.78l6.06-4.87c1.38-1.12,4.02-1.84,5.86-1.65l2.5.33c1.78.2,4.48-.46,5.93-1.58l6.12-4.54c1.45-1.05,3.62-3.09,4.81-4.41l2.44-2.77c1.19-1.38,3.49-3.09,5.14-3.88l5.27-2.5c1.65-.79,3.95-2.57,5.14-3.95l.2-.26c1.19-1.38,3.09-1.98,4.21-1.25s2.57-.13,3.16-1.84l.26-.79c.59-1.71,2.5-3.42,4.28-3.82l3.82-.79c1.78-.33,4.15-1.51,5.27-2.5,1.12-.99,2.77-.99,3.62.13.86,1.12,2.5.86,3.62-.53l.2-.2c1.19-1.38,1.19-3.69,0-5.14l-1.32-1.71c-1.12-1.45-3.29-2.9-4.81-3.29s-2.83-2.17-2.96-3.95v-.79c-.13-1.84-1.19-4.41-2.44-5.73l-5.73-6.19c-1.25-1.32-1.32-3.42-.2-4.67,1.12-1.25,2.3-3.29,2.7-4.48s-.66-2.77-2.37-3.49l-.53-.2c-1.65-.66-4.41-.72-6.12,0l-1.65.66c-1.71.66-3.49-.2-4.02-1.98l-.99-3.36c-.53-1.71-2.24-3.95-3.75-4.87l-1.38-.86c-1.51-.92-4.21-2.11-5.99-2.5l-3.03-.72c-1.78-.46-4.35.2-5.66,1.38l-2.04,1.78c-1.38,1.19-3.42,2.44-4.61,2.77s-2.77,1.91-3.62,3.56l-.46.92c-.79,1.65-2.44,4.08-3.62,5.46l-2.96,3.49c-1.19,1.38-3.62,2.63-5.4,2.83l-2.7.26c-1.78.2-4.41,1.25-5.86,2.44l-3.42,2.7c-1.45,1.12-4.08,2.11-5.86,2.17h-2.83c-1.84.13-4.74.26-6.58.39l-4.94.26c-1.84.13-4.41.92-5.79,1.78s-3.49.59-4.61-.66c-1.12-1.25-3.56-1.84-5.27-1.32l-1.19.33c-1.71.53-4.28,0-5.73-1.12l-.46-.39c-1.38-1.12-3.62-1.12-4.87,0-1.25,1.12-3.75,2.5-5.46,2.96l-6.78,1.84c-1.78.46-4.28,1.91-5.53,3.16l-12.64,12.11c-1.32,1.25-2.57,3.16-2.83,4.28s-1.91,2.24-3.69,2.57l-5.14.92c-1.78.33-4.67.99-6.45,1.38l-4.02.99h-.07.07Z"/>
      </g>
      <path class="cls-1" d="M550.76,452.23c-.2,1.38,1.05,2.63,2.9,2.7l5.66.39c1.78.13,4.61.79,6.25,1.58l2.04.92c1.65.72,3.88,2.57,5,4.02l2.9,3.82c1.12,1.45,1.84,3.88,1.65,5.46s.53,2.57,1.65,2.3,3.09-1.58,4.48-2.77l2.04-1.78c1.38-1.19,3.95-1.84,5.66-1.38l3.03.72c1.78.46,4.54.13,6.19-.59l9.09-4.21c1.65-.79,3.82-2.63,4.74-4.15l.66-1.05c.99-1.51,3.29-2.83,5.07-2.96l5.86-.33c1.84-.13,3.95-1.19,4.81-2.37s0-2.63-1.65-3.23l-2.96-.92c-1.71-.53-3.03-2.11-2.83-3.49s-1.19-2.24-2.96-1.98l-2.24.33c-1.78.26-3.62-.72-4.08-2.24-.46-1.51-2.24-2.24-3.95-1.71l-8.95,2.77c-1.71.53-3.88,1.91-4.87,3.03s-3.16,1.71-4.94,1.38l-7.24-1.58c-1.78-.39-4.61-.13-6.25.53l-7.24,2.96c-1.65.66-4.54,1.25-6.32,1.25h-9.55c-1.84,0-3.49,1.12-3.69,2.5h.07v.07Z"/>
      <path class="cls-1" d="M612.58,461.58c0-.33,1.58-.66,3.42-.72h.59c1.78-.13,4.15.2,5.2.79s1.71,1.91,1.45,2.96.99,2.3,2.7,2.77l1.51.39c1.78.46,3.03,2.04,2.83,3.42s1.19,2.7,2.96,2.83l4.15.33c1.78.13,3.88,1.65,4.61,3.29l1.58,3.56c.72,1.65.39,3.49-.72,4.08s-3.23.13-4.67-.99l-3.29-2.57c-1.45-1.12-4.02-1.65-5.79-1.19l-4.54,1.19c-1.78.46-4.54.26-6.25-.39l-.53-.2c-1.65-.66-4.41-.72-6.12,0l-1.65.66c-1.71.66-3.49-.2-4.02-1.98l-.99-3.36c-.53-1.71-2.17-3.95-3.69-4.94l-.99-.66c-1.51-.99-1.45-2.44.2-3.23l8.76-4.15c1.65-.79,3.03-1.65,3.09-1.98h.2v.07Z"/>
      <g>
        <path class="cls-1" d="M624.82,481.79c-1.78.46-1.98,1.65-.46,2.63l1.58,1.05c1.51.99,3.69,2.17,4.74,2.57,1.05.4,3.42.33,5.2-.13l2.11-.59c1.71-.53,1.98-1.84.53-2.9l-3.56-2.7c-1.45-1.12-4.08-1.58-5.79-1.12l-4.41,1.19h.07Z"/>
        <path class="cls-1" d="M643.72,481.27c.72,1.65,1.98,1.65,2.83,0l.53-1.12c.79-1.65,1.32-3.95,1.19-5.2-.13-1.25.53-3.49,1.51-5l2.57-4.08c.99-1.51,3.03-2.24,4.54-1.51s2.24,2.3,1.58,3.62,0,2.44,1.58,2.5c1.58.07,2.24,1.32,1.65,2.63s.2,2.9,1.98,3.49l2.9.99c1.71.59,3.69.53,4.35,0s.66-2.5,0-4.21l-1.78-4.41c-.66-1.65-.46-3.03.53-3.03s1.38-1.38.92-3.16l-3.29-11.59c-.53-1.78-.39-4.21.2-5.46s2.44-2.9,4.08-3.62c1.65-.72,1.65-1.78,0-2.44l-.79-.26c-1.71-.66-4.21-.53-5.66.2-1.45.72-3.82.59-5.4-.33l-1.65-.99c-1.51-.92-4.08-2.44-5.73-3.29l-4.08-2.24c-1.58-.86-3.29-.13-3.75,1.65l-1.71,6.72c-.46,1.78-2.17,3.56-3.82,3.95-1.65.39-4.41.39-6.19,0l-5.93-1.58c-1.78-.46-3.36.2-3.62,1.45-.26,1.25.99,2.77,2.7,3.29l2.96.92c1.71.53,2.44,1.98,1.65,3.23s-2.96,2.3-4.81,2.37l-5.86.33c-1.84.13-4.02,1.32-4.87,2.77s-.13,2.57,1.65,2.57,4.15.46,5.2,1.05,1.71,1.91,1.45,2.96c-.26,1.05.99,2.3,2.7,2.77l1.51.39c1.78.46,3.03,2.04,2.83,3.42-.2,1.38,1.19,2.7,2.96,2.83l4.15.33c1.78.13,3.88,1.65,4.61,3.29l1.58,3.56h0v.33l.07-.07Z"/>
      </g>
      <path class="cls-1" d="M192.42,468.56c1.32-1.25,2.9-3.62,3.56-5.33.66-1.71,2.63-3.49,4.35-4.08l.72-.2c1.71-.53,4.61-.79,6.39-.46l1.65.26c1.78.26,3.95-.33,4.74-1.32s2.9-1.38,4.61-.79l2.96,1.05c1.71.59,2.77,2.57,2.3,4.28l-.46,1.78c-.4,1.78.66,3.42,2.44,3.75l4.87.86c1.78.33,2.63,1.91,1.91,3.62l-2.11,4.81c-.72,1.65-2.57,2.17-4.02,1.19l-2.11-1.38c-1.51-.99-3.16-.39-3.62,1.32l-1.38,4.67c-.53,1.71-1.65,1.91-2.57.33l-2.57-4.28c-.92-1.58-2.57-1.65-3.62-.2l-2.5,3.29c-1.05,1.45-3.42,2.5-5.27,2.3l-2.04-.2c-1.78-.2-3.69-1.71-4.28-3.42l-.53-1.78c-.53-1.71-2.3-2.44-3.88-1.51l-1.91,1.05c-1.58.86-2.77.13-2.57-1.65v-.13c.2-1.78,1.38-4.28,2.7-5.53l2.3-2.17h0v-.13h-.07Z"/>
    </g>
  </g>
</svg>